<svg preserveAspectRatio="none" width="100%" height="100%" overflow="visible" style="display: block;" viewBox="0 0 23.0398 40" fill="none" xmlns="http://www.w3.org/2000/svg">
<g id="Group">
<path id="Vector" d="M19.6655 3.37404C17.5866 1.29148 14.696 -0.00124909 11.5198 9.05685e-07C8.34354 -0.00124909 5.45294 1.29148 3.37404 3.37404C1.29273 5.45411 -0.00117062 8.34346 1.2451e-06 11.5198C-0.00124875 14.2261 0.938745 16.7272 2.50608 18.6914C2.96748 19.2725 3.3667 19.7546 3.68529 20.1684C3.92459 20.4785 4.11865 20.7495 4.27247 20.996C4.50318 21.3671 4.64357 21.6735 4.74731 22.041C4.84864 22.4096 4.91091 22.8588 4.91208 23.4936C4.91208 23.9209 4.95966 24.3371 5.07934 24.746C5.16848 25.0512 5.30153 25.3539 5.4895 25.6323C5.76661 26.0522 6.17801 26.405 6.62965 26.6137C7.08011 26.8249 7.55003 26.9019 7.98831 26.9019H15.0525C15.4419 26.9019 15.8557 26.8408 16.261 26.6785C16.5637 26.5576 16.8591 26.377 17.1106 26.1451C17.4915 25.7984 17.7588 25.3528 17.9138 24.8987C18.07 24.4422 18.1286 23.9747 18.1286 23.4938C18.1286 22.9298 18.1787 22.5111 18.2605 22.1681C18.3875 21.6553 18.573 21.2745 18.9356 20.741C19.2957 20.2125 19.8401 19.5631 20.5359 18.6915C22.1021 16.7274 23.0408 14.225 23.0395 11.5199C23.0407 8.34346 21.7467 5.45411 19.6655 3.37404ZM17.9675 16.6454C17.5243 17.1997 17.1252 17.6843 16.7553 18.1615C16.4794 18.5204 16.2194 18.8768 15.9814 19.2577C15.6262 19.8265 15.3234 20.4589 15.1281 21.1669C14.9328 21.8749 14.8449 22.6402 14.8449 23.4935C14.8449 23.5399 14.8437 23.5814 14.8412 23.6181H8.20065C8.19823 23.5814 8.19573 23.5412 8.19573 23.4935C8.19573 22.7342 8.12737 22.0458 7.97237 21.4037C7.74534 20.4382 7.31683 19.6129 6.81394 18.8842C6.30738 18.1493 5.73481 17.4779 5.07442 16.6454C3.95138 15.2355 3.2849 13.4631 3.28365 11.5198C3.2849 9.24072 4.20287 7.19238 5.697 5.69582C7.19238 4.20287 9.23955 3.28365 11.5198 3.28365C13.8 3.28365 15.8483 4.20287 17.3437 5.69575C18.8366 7.1923 19.7546 9.24065 19.7558 11.5197C19.7546 13.4643 19.0881 15.2367 17.9675 16.6454Z" fill="var(--fill-0, #0268A0)"/>
<path id="Vector_2" d="M11.5185 40C12.8783 40 13.9818 38.8977 13.9818 37.5367H9.05506C9.05514 38.8977 10.1586 40 11.5185 40Z" fill="var(--fill-0, #0268A0)"/>
<path id="Vector_3" d="M15.7406 28.8572H7.29706C6.56222 28.8572 5.96769 29.4517 5.96769 30.1854C5.96769 30.9202 6.56214 31.5147 7.29706 31.5147H15.7406C16.4743 31.5147 17.07 30.9203 17.07 30.1854C17.07 29.4517 16.4743 28.8572 15.7406 28.8572Z" fill="var(--fill-0, #0268A0)"/>
<path id="Vector_4" d="M15.7406 33.1479H7.29706C6.56222 33.1479 5.96769 33.7424 5.96769 34.4773C5.96769 35.211 6.56214 35.8054 7.29706 35.8054H15.7406C16.4743 35.8054 17.07 35.211 17.07 34.4773C17.07 33.7424 16.4743 33.1479 15.7406 33.1479Z" fill="var(--fill-0, #0268A0)"/>
</g>
</svg>
