<svg preserveAspectRatio="none" width="100%" height="100%" overflow="visible" style="display: block;" viewBox="0 0 37.2626 38.3334" fill="none" xmlns="http://www.w3.org/2000/svg">
<g id="Group 1000006026">
<path id="Vector" fill-rule="evenodd" clip-rule="evenodd" d="M18.6312 12.197C14.782 12.197 11.6615 15.3174 11.6615 19.1666C11.6615 23.016 14.782 26.1363 18.6312 26.1363C22.4804 26.1363 25.6009 23.016 25.6009 19.1666C25.6009 15.3174 22.4804 12.197 18.6312 12.197ZM15.1464 19.1666C15.1464 17.2421 16.7066 15.6818 18.6312 15.6818C20.5559 15.6818 22.1161 17.2421 22.1161 19.1666C22.1161 21.0913 20.5559 22.6515 18.6312 22.6515C16.7066 22.6515 15.1464 21.0913 15.1464 19.1666Z" fill="var(--fill-0, #0268A0)"/>
<path id="Vector_2" fill-rule="evenodd" clip-rule="evenodd" d="M18.6312 12.197C14.782 12.197 11.6615 15.3174 11.6615 19.1666C11.6615 23.016 14.782 26.1363 18.6312 26.1363C22.4804 26.1363 25.6009 23.016 25.6009 19.1666C25.6009 15.3174 22.4804 12.197 18.6312 12.197ZM15.1464 19.1666C15.1464 17.2421 16.7066 15.6818 18.6312 15.6818C20.5559 15.6818 22.1161 17.2421 22.1161 19.1666C22.1161 21.0913 20.5559 22.6515 18.6312 22.6515C16.7066 22.6515 15.1464 21.0913 15.1464 19.1666Z" fill="var(--fill-0, #0268A0)"/>
<path id="Vector_3" fill-rule="evenodd" clip-rule="evenodd" d="M16.4834 0.0297799C16.8758 -0.00029604 17.3165 -0.000119965 17.6758 1.94283e-05H19.5868C19.9461 -0.000119965 20.3868 -0.00029604 20.7792 0.0297799C21.243 0.0653253 21.8858 0.155705 22.5751 0.469358C23.4465 0.865794 24.1922 1.49389 24.731 2.28514C25.1574 2.91116 25.3557 3.52928 25.4696 3.98022C25.566 4.36188 25.6407 4.796 25.7015 5.15008L25.9483 6.58L25.9531 6.58267C26.0138 6.61619 26.0741 6.65012 26.1342 6.68446L26.1387 6.68697L27.7712 6.09613C28.1024 5.97613 28.5096 5.82856 28.8828 5.72461C29.3247 5.60154 29.949 5.46928 30.6917 5.52394C31.6322 5.59314 32.5364 5.91547 33.3086 6.45678C33.9183 6.88423 34.3182 7.38153 34.5825 7.7564C34.806 8.0731 35.028 8.44502 35.2087 8.74747L36.0831 10.2107C36.2744 10.5302 36.5075 10.92 36.6875 11.2827C36.8994 11.7096 37.1581 12.3272 37.2364 13.1042C37.3346 14.0826 37.1552 15.069 36.7182 15.95C36.3711 16.6495 35.9111 17.1362 35.5623 17.4612C35.266 17.737 34.9104 18.0196 34.6189 18.2512L33.4419 19.1667L34.6189 20.0821C34.9104 20.3139 35.266 20.5963 35.5623 20.8723C35.9111 21.1971 36.3711 21.6838 36.718 22.3833C37.155 23.2643 37.3346 24.2507 37.2362 25.2292C37.1581 26.0062 36.8992 26.6237 36.6873 27.0508C36.5073 27.4134 36.2742 27.8031 36.0831 28.1227L35.2084 29.5862C35.0279 29.8887 34.8059 30.2603 34.5825 30.5769C34.318 30.9519 33.9183 31.4492 33.3084 31.8766C32.5364 32.418 31.632 32.7403 30.6917 32.8095C29.949 32.8642 29.3247 32.7318 28.8828 32.6087C28.5094 32.5047 28.1022 32.3573 27.771 32.2373L26.1385 31.6464L26.1342 31.649C26.0741 31.6833 26.0138 31.7172 25.9531 31.7508L25.9483 31.7534L25.7015 33.1832C25.6407 33.5373 25.566 33.9715 25.4696 34.3531C25.3557 34.804 25.1574 35.4222 24.731 36.0483C24.1922 36.8395 23.4465 37.4677 22.5751 37.8641C21.8858 38.1777 21.243 38.2681 20.7792 38.3037C20.3866 38.3337 19.9461 38.3335 19.5868 38.3333H17.6758C17.3165 38.3335 16.8758 38.3337 16.4834 38.3037C16.0196 38.2681 15.3768 38.1777 14.6874 37.8641C13.8161 37.4677 13.0703 36.8395 12.5315 36.0483C12.1053 35.4222 11.9069 34.804 11.793 34.3531C11.6967 33.9715 11.6219 33.5373 11.561 33.1832L11.3143 31.7534L11.3095 31.7508C11.2488 31.7172 11.1885 31.6833 11.1284 31.6488L11.1239 31.6464L9.49157 32.2373C9.16037 32.3571 8.75313 32.5047 8.37978 32.6087C7.93785 32.7318 7.31362 32.864 6.57097 32.8095C5.6305 32.7403 4.72627 32.418 3.95408 31.8766C3.34433 31.4492 2.94452 30.9519 2.6801 30.5769C2.45671 30.2603 2.23465 29.8885 2.05407 29.586L1.17951 28.1227C0.98835 27.8031 0.755214 27.4134 0.575222 27.0508C0.363308 26.6237 0.104454 26.0062 0.026324 25.2292C-0.0720706 24.2507 0.107556 23.2643 0.544538 22.3833C0.891559 21.6838 1.35151 21.1971 1.70032 20.8723C1.9966 20.5963 2.35214 20.3139 2.64369 20.0821L3.78314 19.1761V19.1574L2.64362 18.2512C2.35206 18.0196 1.99653 17.737 1.70025 17.4612C1.35144 17.1362 0.891489 16.6495 0.544468 15.95C0.107486 15.069 -0.0721404 14.0827 0.0262368 13.1042C0.104367 12.3272 0.363239 11.7096 0.575135 11.2827C0.755127 10.92 0.988281 10.5303 1.17944 10.2107L2.05398 8.74742C2.23457 8.44498 2.45664 8.0731 2.68002 7.75641C2.94445 7.38155 3.34425 6.88424 3.95401 6.45681C4.72618 5.91549 5.63043 5.59316 6.5709 5.52395C7.31354 5.46929 7.93778 5.60156 8.37969 5.72463C8.75302 5.8286 9.16026 5.97616 9.49144 6.09616L11.1239 6.68699L11.1283 6.68446C11.1884 6.65013 11.2488 6.61619 11.3095 6.58267L11.3143 6.58L11.561 5.1501C11.6219 4.79602 11.6967 4.36188 11.793 3.98022C11.9069 3.52928 12.1053 2.91116 12.5315 2.28514C13.0703 1.49389 13.8161 0.865794 14.6874 0.469358C15.3768 0.155705 16.0196 0.0653253 16.4834 0.0297799ZM22.2796 5.81325C22.1353 4.97695 22.0632 4.55882 21.8506 4.24658C21.671 3.98283 21.4225 3.77346 21.132 3.64132C20.7881 3.48488 20.3638 3.48488 19.5152 3.48488H17.7474C16.8988 3.48488 16.4744 3.48488 16.1306 3.64132C15.8401 3.77346 15.5916 3.98283 15.412 4.24658C15.1994 4.55882 15.1272 4.97695 14.9829 5.81325L14.7111 7.38899C14.6141 7.95125 14.5656 8.23237 14.4628 8.44847C14.3619 8.66066 14.2794 8.77664 14.1121 8.94152C13.9416 9.10946 13.6262 9.2838 12.9955 9.6325C12.949 9.65822 12.9027 9.68423 12.8566 9.71056C12.2533 10.0551 11.9516 10.2274 11.7276 10.2858C11.5075 10.3431 11.3705 10.3549 11.1439 10.336C10.9132 10.3168 10.6548 10.2232 10.1379 10.0362L8.37181 9.39703C7.58907 9.11374 7.19768 8.9721 6.82665 8.99941C6.51317 9.02246 6.21175 9.12991 5.95436 9.31034C5.64973 9.52389 5.4362 9.88118 5.00915 10.5957L4.20873 11.935C3.75788 12.6894 3.53244 13.0666 3.49361 13.4529C3.46081 13.779 3.52068 14.1078 3.66635 14.4015C3.83887 14.7493 4.18279 15.0228 4.87063 15.5698L6.13369 16.5743C6.57247 16.9231 6.79186 17.0977 6.92939 17.2847C7.07807 17.487 7.14147 17.6183 7.20718 17.8605C7.26799 18.0846 7.26799 18.4453 7.26799 19.1667C7.26799 19.888 7.26799 20.2487 7.20718 20.4729C7.14146 20.7151 7.07807 20.8465 6.92942 21.0486C6.79186 21.2358 6.57247 21.4102 6.13365 21.7592L4.87071 22.7635C4.18287 23.3107 3.83895 23.584 3.66642 23.932C3.52075 24.2256 3.46088 24.5544 3.49368 24.8806C3.53253 25.2669 3.75795 25.6439 4.2088 26.3984L5.00922 27.7376C5.43629 28.4522 5.6498 28.8096 5.95443 29.023C6.21184 29.2035 6.51324 29.3109 6.82674 29.334C7.19775 29.3612 7.58914 29.2196 8.3719 28.9364L10.1379 28.2973C10.6548 28.1102 10.9132 28.0166 11.1439 27.9974C11.3705 27.9786 11.5076 27.9903 11.7276 28.0476C11.9516 28.106 12.2533 28.2783 12.8566 28.6228C12.9027 28.6491 12.949 28.6752 12.9955 28.7008C13.6262 29.0495 13.9416 29.2239 14.1121 29.3919C14.2794 29.5567 14.3619 29.6728 14.4628 29.885C14.5656 30.1011 14.6141 30.3821 14.7111 30.9444L14.9829 32.5201C15.1272 33.3564 15.1994 33.7746 15.412 34.0868C15.5916 34.3505 15.8401 34.5599 16.1306 34.692C16.4744 34.8485 16.8988 34.8485 17.7474 34.8485H19.5152C20.3638 34.8485 20.7881 34.8485 21.132 34.692C21.4225 34.5599 21.671 34.3505 21.8506 34.0868C22.0632 33.7746 22.1353 33.3564 22.2796 32.5201L22.5516 30.9444C22.6485 30.3821 22.6971 30.1011 22.7997 29.885C22.9006 29.6728 22.9832 29.5567 23.1505 29.3919C23.321 29.2239 23.6364 29.0495 24.267 28.7008C24.3135 28.6752 24.3599 28.6491 24.4059 28.6228C25.0093 28.2783 25.3109 28.106 25.535 28.0476C25.755 27.9903 25.892 27.9786 26.1187 27.9974C26.3494 28.0166 26.6078 28.1102 27.1246 28.2973L28.8907 28.9364C29.6734 29.2197 30.0649 29.3614 30.4359 29.334C30.7493 29.3109 31.0508 29.2035 31.3081 29.023C31.6127 28.8096 31.8263 28.4522 32.2534 27.7376L33.0539 26.3984C33.5046 25.6441 33.7301 25.2669 33.769 24.8806C33.8017 24.5544 33.7418 24.2256 33.5961 23.932C33.4236 23.5842 33.0796 23.3107 32.3919 22.7635L31.129 21.7592C30.6901 21.4102 30.4707 21.2358 30.3332 21.0486C30.1846 20.8465 30.1212 20.7151 30.0553 20.4729C29.9945 20.2489 29.9945 19.888 29.9945 19.1667C29.9945 18.4453 29.9945 18.0846 30.0553 17.8605C30.1212 17.6183 30.1846 17.487 30.3332 17.2847C30.4707 17.0977 30.6901 16.9231 31.1288 16.5743L32.3919 15.5698C33.0798 15.0228 33.4238 14.7492 33.5963 14.4014C33.7419 14.1078 33.8017 13.779 33.769 13.4528C33.7301 13.0665 33.5048 12.6894 33.0539 11.935L32.2534 10.5957C31.8263 9.88116 31.6129 9.52388 31.3083 9.31032C31.0508 9.1299 30.7495 9.02244 30.4359 8.99937C30.0649 8.97207 29.6736 9.11371 28.8907 9.39701L27.1247 10.0362C26.6078 10.2232 26.3494 10.3168 26.1187 10.336C25.892 10.3548 25.755 10.343 25.535 10.2858C25.3109 10.2274 25.0093 10.0551 24.406 9.71056C24.3599 9.68423 24.3135 9.65822 24.2672 9.6325C23.6364 9.2838 23.321 9.10946 23.1505 8.94152C22.9832 8.77664 22.9006 8.66066 22.7997 8.44847C22.6971 8.23237 22.6485 7.95123 22.5516 7.38899L22.2796 5.81325Z" fill="var(--fill-0, #0268A0)"/>
</g>
</svg>
