<svg preserveAspectRatio="none" width="100%" height="100%" overflow="visible" style="display: block;" viewBox="0 0 24 24" fill="none" xmlns="http://www.w3.org/2000/svg">
<g id="tdesign:money-filled">
<path id="Vector" d="M13.5 16C13.5 16.3978 13.342 16.7794 13.0607 17.0607C12.7794 17.342 12.3978 17.5 12 17.5C11.6022 17.5 11.2206 17.342 10.9393 17.0607C10.658 16.7794 10.5 16.3978 10.5 16C10.5 15.6022 10.658 15.2206 10.9393 14.9393C11.2206 14.658 11.6022 14.5 12 14.5C12.3978 14.5 12.7794 14.658 13.0607 14.9393C13.342 15.2206 13.5 15.6022 13.5 16Z" fill="var(--fill-0, #0582CF)"/>
<path id="Vector_2" d="M14.347 0.66L17.527 5.116L19.624 4.401L21.538 10H22.5V22H1.5V10H2.01V9.99L2.658 9.996L14.347 0.66ZM9.397 10H19.425L18.388 6.967L16.866 7.454L9.397 10ZM7.839 8.417L15.55 5.79L13.946 3.54L7.839 8.417ZM5.5 12H3.5V14C4.03043 14 4.53914 13.7893 4.91421 13.4142C5.28929 13.0391 5.5 12.5304 5.5 12ZM15.5 16C15.5 15.5404 15.4095 15.0852 15.2336 14.6606C15.0577 14.236 14.7999 13.8501 14.4749 13.5251C14.1499 13.2001 13.764 12.9423 13.3394 12.7664C12.9148 12.5905 12.4596 12.5 12 12.5C11.5404 12.5 11.0852 12.5905 10.6606 12.7664C10.236 12.9423 9.85013 13.2001 9.52513 13.5251C9.20012 13.8501 8.94231 14.236 8.76642 14.6606C8.59053 15.0852 8.5 15.5404 8.5 16C8.5 16.9283 8.86875 17.8185 9.52513 18.4749C10.1815 19.1313 11.0717 19.5 12 19.5C12.9283 19.5 13.8185 19.1313 14.4749 18.4749C15.1313 17.8185 15.5 16.9283 15.5 16ZM20.5 20V18C19.9696 18 19.4609 18.2107 19.0858 18.5858C18.7107 18.9609 18.5 19.4696 18.5 20H20.5ZM18.5 12C18.5 12.5304 18.7107 13.0391 19.0858 13.4142C19.4609 13.7893 19.9696 14 20.5 14V12H18.5ZM3.5 20H5.5C5.5 19.4696 5.28929 18.9609 4.91421 18.5858C4.53914 18.2107 4.03043 18 3.5 18V20Z" fill="var(--fill-0, #0582CF)"/>
</g>
</svg>
