<svg preserveAspectRatio="none" width="100%" height="100%" overflow="visible" style="display: block;" viewBox="0 0 14.2804 15.7999" fill="none" xmlns="http://www.w3.org/2000/svg">
<g id="Group 858">
<path id="Vector" d="M13.8804 11.3628V4.43709C13.8804 4.33743 13.8539 4.23956 13.8035 4.15353C13.7532 4.0675 13.6809 3.9964 13.5941 3.94754L7.41556 0.472134C7.33148 0.424842 7.23665 0.4 7.14019 0.4C7.04373 0.4 6.94889 0.424842 6.86482 0.472134L0.686311 3.94754C0.599447 3.9964 0.527148 4.0675 0.476833 4.15353C0.426518 4.23956 0.4 4.33743 0.4 4.43709V11.3628C0.4 11.4625 0.426518 11.5603 0.476833 11.6464C0.527148 11.7324 0.599447 11.8035 0.686311 11.8524L6.86482 15.3278C6.94889 15.3751 7.04373 15.3999 7.14019 15.3999C7.23665 15.3999 7.33148 15.3751 7.41556 15.3278L13.5941 11.8524C13.6809 11.8035 13.7532 11.7324 13.8035 11.6464C13.8539 11.5603 13.8804 11.4625 13.8804 11.3628Z" stroke="var(--stroke-0, #020A0A)" stroke-width="0.8" stroke-linecap="round" stroke-linejoin="round"/>
<path id="Vector_2" d="M10.5811 9.6207V5.96977L3.76914 2.21274" stroke="var(--stroke-0, #020A0A)" stroke-width="0.8" stroke-linecap="round" stroke-linejoin="round"/>
<path id="Vector_3" d="M13.8026 4.15227L7.20645 7.89961L0.477427 4.15157" stroke="var(--stroke-0, #020A0A)" stroke-width="0.8" stroke-linecap="round" stroke-linejoin="round"/>
<path id="Vector_4" d="M7.2063 7.9L7.14037 15.3999" stroke="var(--stroke-0, #020A0A)" stroke-width="0.8" stroke-linecap="round" stroke-linejoin="round"/>
</g>
</svg>
