<svg preserveAspectRatio="none" width="100%" height="100%" overflow="visible" style="display: block;" viewBox="0 0 24 24" fill="none" xmlns="http://www.w3.org/2000/svg">
<g id="download (2)">
<path id="Vector" d="M2.26974 9.9671C2.26974 8.88158 2.47368 7.86513 2.88158 6.91776C3.28948 5.96381 3.85526 5.125 4.57895 4.40132C5.30264 3.67763 6.13816 3.11184 7.08553 2.70394C8.03947 2.29605 9.05922 2.09211 10.1447 2.09211C11.2303 2.09211 12.2467 2.29605 13.1941 2.70394C14.148 3.11184 14.9869 3.67763 15.7105 4.40132C16.4342 5.125 17 5.96381 17.4078 6.91776C17.8158 7.86513 18.0197 8.88158 18.0197 9.9671C18.0197 10.8684 17.8749 11.7237 17.5856 12.5329C17.3026 13.3421 16.9079 14.0756 16.4013 14.7336L21.227 19.5888C21.3322 19.694 21.4112 19.8158 21.4638 19.954C21.5231 20.092 21.5526 20.2401 21.5526 20.398C21.5526 20.6151 21.5032 20.8125 21.4046 20.9901C21.3125 21.1677 21.1809 21.3059 21.0099 21.4046C20.8388 21.5098 20.6414 21.5625 20.4178 21.5625C20.2599 21.5625 20.1086 21.5329 19.9638 21.4737C19.8256 21.421 19.6974 21.3388 19.5789 21.227L14.7236 16.3618C14.0789 16.8224 13.3684 17.1843 12.5921 17.4474C11.8158 17.7105 11 17.8421 10.1447 17.8421C9.05922 17.8421 8.03947 17.6381 7.08553 17.2302C6.13816 16.8224 5.30264 16.2566 4.57895 15.5329C3.85526 14.8093 3.28948 13.9737 2.88158 13.0263C2.47368 12.0724 2.26974 11.0526 2.26974 9.9671ZM3.95723 9.9671C3.95723 10.8224 4.11513 11.625 4.43092 12.375C4.75329 13.1184 5.19736 13.773 5.76316 14.3389C6.33552 14.9046 6.99342 15.3486 7.73684 15.671C8.48684 15.9935 9.28948 16.1547 10.1447 16.1547C11 16.1547 11.7993 15.9935 12.5428 15.671C13.2927 15.3486 13.9507 14.9046 14.5165 14.3389C15.0822 13.773 15.5264 13.1184 15.8487 12.375C16.1711 11.625 16.3323 10.8224 16.3323 9.9671C16.3323 9.11184 16.1711 8.3125 15.8487 7.56908C15.5264 6.81908 15.0822 6.16118 14.5165 5.5954C13.9507 5.02302 13.2927 4.57895 12.5428 4.26316C11.7993 3.94079 11 3.77961 10.1447 3.77961C9.28948 3.77961 8.48684 3.94079 7.73684 4.26316C6.99342 4.57895 6.33552 5.02302 5.76316 5.5954C5.19736 6.16118 4.75329 6.81908 4.43092 7.56908C4.11513 8.3125 3.95723 9.11184 3.95723 9.9671Z" fill="var(--fill-0, #0268A0)"/>
</g>
</svg>
