<svg preserveAspectRatio="none" width="100%" height="100%" overflow="visible" style="display: block;" viewBox="0 0 43.0769 43.0769" fill="none" xmlns="http://www.w3.org/2000/svg">
<path id="Vector" d="M40.2009 40.2434C39.7912 40.654 39.3046 40.9797 38.7692 41.2019C38.2337 41.4241 37.6597 41.5385 37.0801 41.5385C36.5005 41.5385 35.9265 41.4241 35.391 41.2019C34.8556 40.9797 34.3691 40.654 33.9593 40.2434L22.4662 28.7357C19.4305 30.2822 15.949 30.7122 12.629 29.9507C9.68624 29.2645 7.0352 27.6648 5.05447 25.3799C3.07373 23.0951 1.86458 20.242 1.59965 17.228C1.3541 14.589 1.85068 11.9338 3.03325 9.56255L12.629 19.2605L18.1432 18.1557L19.2464 12.634L9.56278 3.09198C11.9238 1.885 14.5754 1.36455 17.2167 1.58963C20.2266 1.85492 23.0759 3.06572 25.3576 5.04915C27.6393 7.03259 29.2369 9.68723 29.9222 12.634C30.6614 15.9306 30.2324 19.382 28.7088 22.3966L40.2009 33.9043C40.6241 34.3163 40.9606 34.8092 41.1903 35.3537C41.4201 35.8982 41.5385 36.4833 41.5385 37.0744C41.5385 37.6655 41.4201 38.2506 41.1903 38.7951C40.9606 39.3396 40.6241 39.8314 40.2009 40.2434Z" stroke="var(--stroke-0, #6ABFEF)" stroke-width="3.07692" stroke-linecap="round" stroke-linejoin="round"/>
</svg>
