<svg preserveAspectRatio="none" width="100%" height="100%" overflow="visible" style="display: block;" viewBox="0 0 38.2916 42.7351" fill="none" xmlns="http://www.w3.org/2000/svg">
<g id="Group">
<path id="Vector" d="M16.9239 23.5893H21.3677C23.4106 23.5892 25.4335 23.9915 27.321 24.7732C29.2084 25.5549 30.9234 26.7008 32.368 28.1454C33.8125 29.5899 34.9584 31.3049 35.7401 33.1924C36.5219 35.0798 36.9241 37.1028 36.924 39.1457C36.924 39.4375 36.8665 39.7266 36.7548 39.9962C36.643 40.2658 36.4793 40.5108 36.2729 40.7172C36.0664 40.9235 35.8214 41.0871 35.5517 41.1987C35.282 41.3103 34.9929 41.3677 34.7011 41.3676H3.5905C3.29863 41.3677 3.00959 41.3103 2.7399 41.1987C2.4702 41.0871 2.22514 40.9235 2.01871 40.7172C1.81227 40.5108 1.64851 40.2658 1.53679 39.9962C1.42506 39.7266 1.36756 39.4375 1.36756 39.1457C1.36742 37.1028 1.7697 35.0798 2.55143 33.1924C3.33316 31.3049 4.47902 29.5899 5.92359 28.1454C7.36816 26.7008 9.08313 25.5549 10.9706 24.7732C12.858 23.9915 14.881 23.5892 16.9239 23.5893Z" stroke="var(--stroke-0, #6ABFEF)" stroke-width="2.73511" stroke-linecap="round" stroke-linejoin="round"/>
<path id="Vector_2" d="M19.1459 23.5895C25.2825 23.5895 30.2574 18.6156 30.2574 12.4791C30.2574 6.34251 25.2825 1.36756 19.1459 1.36756C13.0093 1.36756 8.03439 6.34251 8.03439 12.4791C8.03439 18.6156 13.0093 23.5895 19.1459 23.5895Z" stroke="var(--stroke-0, #6ABFEF)" stroke-width="2.73511" stroke-linecap="round" stroke-linejoin="round"/>
</g>
</svg>
