<svg preserveAspectRatio="none" width="100%" height="100%" overflow="visible" style="display: block;" viewBox="0 0 40.1695 38.3851" fill="none" xmlns="http://www.w3.org/2000/svg">
<path id="Star 2" d="M19.7992 1.73149C19.9026 1.47412 20.2669 1.47412 20.3703 1.73149L25.1853 13.7219C25.2293 13.8315 25.3321 13.9062 25.45 13.9142L38.3414 14.7883C38.6181 14.8071 38.7307 15.1536 38.5179 15.3314L28.6023 23.616C28.5116 23.6917 28.4724 23.8126 28.5012 23.9271L31.6535 36.4577C31.7212 36.7267 31.4264 36.9409 31.1915 36.7934L20.2483 29.9232C20.1483 29.8604 20.0212 29.8604 19.9211 29.9232L8.97797 36.7934C8.74308 36.9409 8.44831 36.7267 8.51598 36.4577L11.6683 23.9271C11.6971 23.8126 11.6578 23.6917 11.5672 23.616L1.65161 15.3314C1.43877 15.1536 1.55136 14.8071 1.82808 14.7883L14.7195 13.9142C14.8373 13.9062 14.9402 13.8315 14.9842 13.7219L19.7992 1.73149Z" stroke="var(--stroke-0, #6ABFEF)" stroke-width="3.07692"/>
</svg>
