<svg preserveAspectRatio="none" width="100%" height="100%" overflow="visible" style="display: block;" viewBox="0 0 19.758 18.0977" fill="none" xmlns="http://www.w3.org/2000/svg">
<g id="Group 1000006025">
<path id="Vector" d="M5.12 17.5066C4.36 17.5066 3.64 17.2066 3.09 16.6666C1.97 15.5466 1.97 13.7366 3.09 12.6166L8.6 7.10659C8.1 5.16656 8.64 3.07656 10.06 1.65656C11.49 0.226564 13.59 -0.333436 15.54 0.196564C15.8 0.266564 16 0.466564 16.07 0.726564C16.14 0.986564 16.07 1.25656 15.88 1.44656L13.43 3.89656L13.95 5.80656L15.86 6.32656L18.31 3.87656C18.5 3.68656 18.78 3.61656 19.03 3.68656C19.29 3.75656 19.49 3.95656 19.56 4.21656C20.09 6.16656 19.54 8.26659 18.1 9.69659C16.68 11.1166 14.59 11.6566 12.65 11.1566L7.14 16.6666C6.6 17.2066 5.88 17.5066 5.12 17.5066ZM13.68 1.52656C12.72 1.60656 11.81 2.02656 11.11 2.72656C9.97 3.86656 9.6 5.53656 10.15 7.07659C10.25 7.34659 10.18 7.65659 9.97 7.85659L4.14 13.6866C3.61 14.2166 3.61 15.0866 4.14 15.6166C4.4 15.8766 4.74 16.0166 5.11 16.0166C5.47 16.0166 5.82 15.8766 6.07 15.6166L11.9 9.78659C12.11 9.57659 12.41 9.51659 12.68 9.60659C14.22 10.1466 15.89 9.78659 17.03 8.64659C17.73 7.94659 18.14 7.03659 18.23 6.07656L16.6 7.70659C16.41 7.89659 16.13 7.96659 15.87 7.89659L13.13 7.14659C12.87 7.07659 12.67 6.87659 12.6 6.61656L11.85 3.87656C11.78 3.61656 11.85 3.33656 12.04 3.14656L13.67 1.51656L13.68 1.52656Z" fill="var(--fill-0, #0268A0)"/>
<line id="Line 50" x1="1.13137" y1="2.09766" x2="16" y2="16.9663" stroke="var(--stroke-0, #0268A0)" stroke-width="1.6" stroke-linecap="round"/>
</g>
</svg>
