<svg preserveAspectRatio="none" width="100%" height="100%" overflow="visible" style="display: block;" viewBox="0 0 50.0354 50" fill="none" xmlns="http://www.w3.org/2000/svg">
<g id="Group 3">
<path id="Path 77" d="M25.0177 0C18.3849 0.0076375 12.026 2.64401 7.33596 7.33076C2.64588 12.0175 0.00764291 18.3719 0 25C0.007484 31.6281 2.64568 37.9826 7.33578 42.6694C12.0259 47.3562 18.3849 49.9925 25.0177 50C31.6506 49.9927 38.0097 47.3564 42.6998 42.6696C47.39 37.9828 50.0281 31.6282 50.0354 25C50.0279 18.3719 47.3897 12.0174 42.6996 7.33059C38.0095 2.6438 31.6505 0.00747871 25.0177 0ZM36.6482 43.5751C36.5231 43.5294 36.413 43.4753 36.413 43.4344C36.423 43.3299 36.3917 43.2256 36.3258 43.1438C36.26 43.062 36.1647 43.0092 36.0604 42.9967C35.8661 42.9967 35.0473 42.6715 34.8343 42.6715C34.7337 42.6728 34.6371 42.7111 34.563 42.7791C34.486 42.7117 34.1485 42.4749 34.1485 42.3582C34.162 42.2188 34.1204 42.0796 34.0324 41.9704C33.9445 41.8613 33.8172 41.791 33.678 41.7745C33.4205 41.7745 32.8189 41.5039 32.5608 41.5039C32.3027 41.5039 29.9702 40.3244 29.7097 40.3244C29.6487 40.3256 29.5888 40.3401 29.5339 40.3668C29.4791 40.3934 29.4307 40.4317 29.3921 40.4789C29.3595 40.3969 29.304 40.326 29.2322 40.2747C29.1604 40.2233 29.0754 40.1936 28.9872 40.1891C28.9363 40.1781 28.8907 40.15 28.8579 40.1096C28.8251 40.0691 28.807 40.0187 28.8067 39.9667C28.8203 39.8278 28.779 39.689 28.6917 39.5801C28.6044 39.4711 28.4779 39.4006 28.3392 39.3835C28.1696 39.3835 27.7316 39.0228 27.4723 39.0228C27.4434 39.0228 26.6565 38.3723 26.3978 38.3723C26.1785 38.3106 25.9688 38.219 25.7745 38.1C25.6241 34.7201 25.2385 32.1566 25.0905 30.8298C25.0153 30.157 24.9654 29.7909 24.9654 29.7909C24.8661 29.1524 24.7927 28.348 24.738 27.4282C24.4203 22.0716 24.7349 12.7531 24.9269 8.71789C24.9545 8.09926 24.981 7.59908 24.9997 7.26121C24.9997 7.20109 25.0063 7.14998 25.0093 7.10369C25.0093 7.03996 25.0141 6.98346 25.0177 6.94378C25.0213 6.86983 25.0231 6.83135 25.0231 6.83135C24.7379 7.34991 24.5691 7.92434 24.5286 8.51469C23.9348 12.0118 23.562 15.5427 23.4126 19.0867C23.3524 20.2656 23.3199 21.3856 23.3007 22.4299C23.2314 24.7519 23.2967 27.076 23.4962 29.3905C23.6978 32.1656 23.8806 34.8614 24.158 38.2401C24.0762 38.2695 23.9901 38.3002 23.8999 38.3411C23.4968 38.5112 23.0576 38.7571 23.0065 38.9387C22.9674 39.0733 22.8338 39.2212 22.7279 39.2212C22.524 39.2212 22.0373 39.9649 21.9837 39.9649C21.5441 40.1308 21.1786 40.4489 20.9538 40.8613C20.8102 41.0752 20.5899 41.2259 20.3383 41.2821C20.0796 41.2821 19.5863 41.8659 19.3276 41.8659C19.1471 41.8659 18.4396 42.057 18.1845 42.057C18.0897 42.0624 17.9988 42.0962 17.9236 42.1542C17.8485 42.2121 17.7926 42.2914 17.7634 42.3817C17.5746 42.2239 17.3343 42.1411 17.0884 42.149C16.6336 42.149 16.041 42.5831 15.923 42.5831C15.8386 42.5838 15.7567 42.6114 15.689 42.6618C15.621 42.6112 15.5386 42.5836 15.4538 42.5831C15.4313 42.5834 15.409 42.5858 15.387 42.5903C15.3652 42.5859 15.3431 42.5834 15.3208 42.5831C15.0597 42.5831 14.3679 43.4037 14.2006 43.4037C14.0039 43.447 13.814 43.517 13.6363 43.6117H13.4384C10.271 41.6449 7.65758 38.9038 5.84481 35.6474C4.03205 32.3909 3.07976 28.7264 3.07788 25C3.08457 19.1877 5.3981 13.6153 9.51094 9.50541C13.6238 5.39548 19.2001 3.08359 25.0165 3.0769C30.8333 3.08311 36.41 5.39479 40.5232 9.50477C44.6365 13.6148 46.9502 19.1874 46.9569 25C46.9546 28.7154 46.0073 32.3692 44.2041 35.6184C42.4009 38.8676 39.8009 41.6055 36.6482 43.5751Z" fill="var(--fill-0, #5FA042)"/>
<path id="Path 78" d="M21.946 25.3609C20.9505 23.8102 19.4166 22.6819 17.6391 22.1926C17.4189 22.1229 17.1903 22.0592 16.9514 21.9996C16.9514 21.9996 13.6924 21.2343 12.3575 21.3497C12.3575 21.3497 12.3785 21.36 12.4224 21.3792C12.6029 21.4604 12.9867 21.7177 13.7688 22.1223C15.5613 23.0369 17.2652 24.1154 18.8585 25.3441C20.6748 26.7791 22.3864 27.6208 22.9742 29.5182C22.9623 28.6034 22.8454 27.6931 22.6259 26.805C22.453 26.3001 22.225 25.8159 21.946 25.3609Z" fill="var(--fill-0, #5FA042)"/>
<path id="Path 79" d="M28.0128 14.0576C29.0881 13.3828 30.2238 12.8092 31.4053 12.3442C31.9209 12.138 32.2915 12.0105 32.41 11.9696C32.4383 11.96 32.4527 11.9564 32.4527 11.9564C31.4383 11.8988 30.4206 11.9391 29.4139 12.0767C29.2605 12.0977 29.1131 12.1248 28.9705 12.1554C27.8242 12.3541 26.7919 12.9695 26.0725 13.8832C25.4481 14.6792 25.2026 16.5742 25.1701 17.0022C25.8131 15.7669 26.8005 14.7441 28.0128 14.0576Z" fill="var(--fill-0, #5FA042)"/>
<path id="Path 80" d="M26.3116 29.5031C26.527 29.2115 26.7382 28.8935 26.9854 28.5857C27.2441 28.2893 27.4878 27.9628 27.7856 27.6761L28.2205 27.2294L28.685 26.8085C28.9052 26.5987 29.1464 26.4136 29.3847 26.2272C29.4683 26.1611 29.5513 26.0955 29.6362 26.0306L29.6494 26.0204C29.6525 26.017 29.6561 26.0141 29.6602 26.012C29.7715 25.9278 29.8816 25.843 29.9947 25.7631C30.31 25.5448 30.6264 25.3368 30.9471 25.1589C31.0072 25.1234 31.071 25.0921 31.1324 25.0585C31.1359 25.057 31.1392 25.055 31.142 25.0525L31.1697 25.0386C31.2792 24.9785 31.3881 24.9214 31.4964 24.8679L31.6293 24.7969C31.894 24.6635 32.1521 24.5523 32.3982 24.4519C31.1205 24.5596 29.8738 24.9026 28.7211 25.4637C28.4247 25.6412 28.1383 25.8348 27.8632 26.0438C26.9872 26.6623 26.2896 27.5004 25.8405 28.4738C25.7563 28.669 25.6861 28.8699 25.6306 29.075C25.5857 29.2391 25.5505 29.4058 25.5253 29.574C25.5542 29.9894 25.5933 30.3556 25.642 30.6628C25.6883 30.5708 25.7323 30.4788 25.781 30.3814C25.9458 30.1043 26.1197 29.8121 26.3116 29.5031Z" fill="var(--fill-0, #5FA042)"/>
<path id="Path 81" d="M33.6999 24.1733C33.6151 24.1865 33.5297 24.2009 33.4346 24.2202C33.3492 24.2406 33.2541 24.2647 33.1633 24.2881C32.9509 24.3536 32.7271 24.445 32.4828 24.546C32.2031 24.6735 31.9023 24.8196 31.5967 24.9939C31.4447 25.0841 31.289 25.1763 31.1298 25.2705C30.9734 25.3678 30.8194 25.4797 30.6599 25.5861C30.3357 25.7923 30.0343 26.0544 29.7124 26.2955C29.4146 26.5672 29.0903 26.8179 28.81 27.1155L28.378 27.5472C28.244 27.6999 28.1109 27.8516 27.9785 28.0023C27.7042 28.2957 27.4846 28.6257 27.2494 28.9233C27.0274 29.2311 26.8391 29.5491 26.6477 29.8371C26.4847 30.1425 26.3289 30.4323 26.1857 30.6974L25.8608 31.4543C25.8422 31.4922 25.8289 31.5301 25.8133 31.5667C25.7874 31.6485 25.7694 31.7026 25.7616 31.7279C26.4955 31.5369 27.2037 31.2582 27.8708 30.8976C28.8377 30.3849 29.7246 29.7339 30.5035 28.9654C31.5479 27.9248 32.3902 26.6997 32.9876 25.3522C33.3384 24.7554 33.9089 24.3194 34.5771 24.1372L34.5223 24.1336C34.2476 24.1209 33.9722 24.1342 33.6999 24.1733Z" fill="var(--fill-0, #5FA042)"/>
<path id="Path 82" d="M21.7915 11.8668C21.6069 11.7276 21.4151 11.5981 21.2169 11.479C20.4456 11.1034 19.6113 10.8739 18.7563 10.802C18.9211 10.8688 19.0932 10.9427 19.2707 11.0329L19.3603 11.0792C19.4325 11.1153 19.5053 11.1543 19.5781 11.1934C19.584 11.1976 19.5902 11.2012 19.5968 11.2042L19.6034 11.2078L19.7237 11.274C19.9391 11.3942 20.1502 11.5331 20.3614 11.6786C20.4366 11.7327 20.5106 11.7886 20.5852 11.8457L20.593 11.8511L20.6015 11.8571C20.6616 11.9004 20.714 11.9449 20.7693 11.99C20.9318 12.1117 21.088 12.2415 21.2374 12.379L21.5496 12.6591C21.6465 12.7601 21.7433 12.8593 21.839 12.9597C22.0387 13.1515 22.2 13.3709 22.3756 13.5687C22.5399 13.7749 22.6819 13.9866 22.8256 14.1831C22.9081 14.3178 23.0663 14.6274 23.1722 14.8108L23.2678 13.909C23.2251 13.7599 23.1692 13.5603 23.1409 13.4942C22.8419 12.8427 22.3765 12.2814 21.7915 11.8668Z" fill="var(--fill-0, #5FA042)"/>
<path id="Path 83" d="M23.0608 15.4488C22.9958 15.2965 22.9232 15.1278 22.843 14.9426L22.5338 14.3661C22.405 14.1725 22.2799 13.9615 22.1313 13.7547C21.973 13.5557 21.8257 13.3338 21.6428 13.1385L21.3756 12.8343L21.0863 12.5451C20.898 12.3461 20.6808 12.1784 20.4816 11.9962C20.2669 11.8351 20.0653 11.6601 19.8475 11.5219C19.7404 11.4497 19.6382 11.3752 19.5335 11.3108C19.4288 11.2465 19.3229 11.1864 19.2212 11.1257C19.0161 11.0084 18.8151 10.911 18.628 10.8251C18.4644 10.7583 18.3146 10.6964 18.172 10.6525C18.1119 10.6369 18.0517 10.6213 17.9915 10.608C17.9314 10.5948 17.8712 10.5846 17.811 10.5768C17.6297 10.5499 17.4461 10.5407 17.263 10.5491C17.2407 10.5491 17.2269 10.5491 17.2269 10.5491C17.6741 10.6715 18.0556 10.9639 18.2899 11.3637C18.6902 12.2653 19.2545 13.0847 19.954 13.7805C20.4742 14.2955 21.0673 14.7312 21.7144 15.0737C22.1602 15.316 22.6342 15.5024 23.1257 15.6286C23.1197 15.6124 23.1083 15.5757 23.0909 15.5216C23.0824 15.4987 23.0722 15.4747 23.0608 15.4488Z" fill="var(--fill-0, #5FA042)"/>
</g>
</svg>
