<svg preserveAspectRatio="none" width="100%" height="100%" overflow="visible" style="display: block;" viewBox="0 0 206.653 24.901" fill="none" xmlns="http://www.w3.org/2000/svg">
<g id="Group 2">
<path id="Path 63" d="M6.82763 24.901C2.7443 24.901 0 21.4786 0 12.4509C0 3.42319 2.7443 0 6.82763 0C10.911 0 13.6553 3.42241 13.6553 12.4509C13.6553 21.4794 10.911 24.901 6.82763 24.901ZM6.82763 2.21492C4.4894 2.21492 2.61024 4.2282 2.61024 12.4532C2.61024 20.6783 4.4855 22.6916 6.82763 22.6916C9.16976 22.6916 11.045 20.6791 11.045 12.4532C11.045 4.22741 9.17054 2.21726 6.82763 2.21726V2.21492Z" fill="var(--fill-0, white)"/>
<path id="Path 64" d="M20.917 0.336066L27.1414 18.1898H27.2076V0.336066H29.8187V24.5641H27.0073L19.511 3.48728H19.4439V24.5696H16.8329V0.34154L20.917 0.336066Z" fill="var(--fill-0, white)"/>
<path id="Path 65" d="M44.6579 0.336066V2.55098H36.2231V10.8065H42.449V13.0214H36.2231V22.3524H45.0561V24.5696H33.6128V0.34154L44.6579 0.336066Z" fill="var(--fill-0, white)"/>
<path id="Path 66" d="M50.83 3.96012H46.8137V0.336066H58.9967V3.96012H54.9804V24.5696H50.83V3.96012Z" fill="var(--fill-0, white)"/>
<path id="Path 67" d="M65.5507 24.5696H61.4004V0.34154H67.2249C71.8757 0.34154 74.2529 2.32042 74.2529 7.4896C74.2529 11.3833 72.747 12.9605 71.341 13.5982L74.8553 24.5696H70.6387L67.6926 14.5337C66.981 14.6064 66.266 14.6403 65.5507 14.6353V24.5696ZM65.5507 11.2113H67.023C69.2662 11.2113 70.1025 10.3727 70.1025 7.48648C70.1025 4.60021 69.2662 3.76161 67.023 3.76161H65.5507V11.2113Z" fill="var(--fill-0, white)"/>
<path id="Path 68" d="M77.6667 24.5696V0.34154H88.7811V3.96559H81.8194V10.2086H87.1747V13.8319H81.8194V20.9479H89.2487V24.5696H77.6667Z" fill="var(--fill-0, white)"/>
<path id="Path 69" d="M92.0491 24.5696V0.34154H103.162V3.96559H96.2003V10.2086H101.556V13.8319H96.2003V20.9479H103.631V24.5696H92.0491Z" fill="var(--fill-0, white)"/>
<path id="Path 70" d="M106.369 0.336066H112.059C115.941 0.336066 118.484 2.95348 118.484 6.97925C118.484 11.005 115.941 13.6224 112.059 13.6224H108.979V24.5641H106.368L106.369 0.336066ZM108.98 11.4114H111.723C114.334 11.4114 115.875 10.0046 115.875 6.9816C115.875 3.95856 114.334 2.55098 111.723 2.55098H108.98V11.4114Z" fill="var(--fill-0, white)"/>
<path id="Path 71" d="M123.76 0.336066V22.3524H131.592V24.5696H121.148V0.34154L123.76 0.336066Z" fill="var(--fill-0, white)"/>
<path id="Path 72" d="M142.049 0.336066L147.371 24.5641H144.76L143.322 17.3809H137.164L135.723 24.5696H133.113L138.433 0.34154L142.049 0.336066ZM137.528 15.1691H142.95L140.274 2.1477H140.207L137.528 15.1691Z" fill="var(--fill-0, white)"/>
<path id="Path 73" d="M153.706 0.336066L159.93 18.1898H159.996V0.336066H162.608V24.5641H159.796L152.303 3.49041H152.236V24.5696H149.626V0.34154L153.706 0.336066Z" fill="var(--fill-0, white)"/>
<path id="Path 74" d="M177.349 0.336066V2.55098H172.394V24.5696H169.784V2.55333H164.83V0.338415L177.349 0.336066Z" fill="var(--fill-0, white)"/>
<path id="Path 75" d="M190.772 0.336066V2.55098H182.339V10.8065H188.563V13.0214H182.339V22.3524H191.176V24.5696H179.728V0.34154L190.772 0.336066Z" fill="var(--fill-0, white)"/>
<path id="Path 76" d="M194.001 0.336066H198.488C203.573 0.336066 206.653 3.15434 206.653 12.4501C206.653 21.7459 203.573 24.5641 198.488 24.5641H194.001V0.336066ZM196.612 22.3524H198.015C201.834 22.3524 204.041 20.74 204.041 12.4509C204.041 4.16176 201.832 2.55098 198.015 2.55098H196.612V22.3524Z" fill="var(--fill-0, white)"/>
</g>
</svg>
