<svg preserveAspectRatio="none" width="100%" height="100%" overflow="visible" style="display: block;" viewBox="0 0 24 24" fill="none" xmlns="http://www.w3.org/2000/svg">
<g id="no-svgrepo-com 1">
<path id="Vector" fill-rule="evenodd" clip-rule="evenodd" d="M5 12C5 10.431 5.525 8.984 6.401 7.815L16.185 17.599C15.016 18.475 13.569 19 12 19C8.141 19 5 15.859 5 12ZM19 12C19 13.569 18.475 15.016 17.599 16.185L7.815 6.401C8.984 5.525 10.431 5 12 5C15.859 5 19 8.141 19 12ZM12 3C7.029 3 3 7.029 3 12C3 16.971 7.029 21 12 21C16.971 21 21 16.971 21 12C21 7.029 16.971 3 12 3Z" fill="var(--fill-0, #0268A0)"/>
</g>
</svg>
