<svg preserveAspectRatio="none" width="100%" height="100%" overflow="visible" style="display: block;" viewBox="0 0 50 50" fill="none" xmlns="http://www.w3.org/2000/svg">
<g id="US">
<path id="Vector" d="M2.2 10C2.08954 10 2 10.0895 2 10.2V39.8C2 39.9105 2.08954 40 2.2 40H47.8C47.9105 40 48 39.9105 48 39.8V10.2C48 10.0895 47.9105 10 47.8 10H2.2ZM18.808 13.6814C18.8692 13.6716 18.9224 13.634 18.952 13.5796L19.3361 12.8753C19.4121 12.7359 19.6125 12.7364 19.6878 12.8763L20.064 13.5757C20.0945 13.6323 20.1502 13.6708 20.2139 13.6793L21.0367 13.7883C21.2061 13.8107 21.2711 14.0215 21.1438 14.1355L20.5737 14.646C20.5219 14.6924 20.4979 14.7624 20.5104 14.8308L20.6499 15.598C20.6792 15.7589 20.5134 15.885 20.3662 15.8139L19.5996 15.4434C19.5448 15.4169 19.4809 15.4168 19.426 15.4432L18.653 15.8142C18.5053 15.8851 18.3397 15.7581 18.3699 15.5971L18.5064 14.8688C18.5193 14.8001 18.4953 14.7296 18.4432 14.683L17.8625 14.1629C17.737 14.0506 17.798 13.843 17.9643 13.8164L18.808 13.6814ZM20.6468 23.5424C20.6773 23.7034 20.512 23.8308 20.3642 23.7602L19.5987 23.3951C19.5444 23.3692 19.4813 23.3691 19.4269 23.3948L18.6526 23.7617C18.5048 23.8318 18.34 23.7044 18.3705 23.5437L18.5061 22.8292C18.5192 22.7603 18.4952 22.6896 18.443 22.6429L17.876 22.1351C17.7483 22.0208 17.8142 21.8093 17.9842 21.7877L18.8032 21.6837C18.8671 21.6756 18.9232 21.6372 18.9539 21.5806L19.3358 20.8755C19.4117 20.7354 19.613 20.736 19.6881 20.8765L20.0638 21.5797C20.0943 21.6369 20.1507 21.6757 20.215 21.6838L21.0333 21.7877C21.2033 21.8093 21.2692 22.0208 21.1415 22.1351L20.5745 22.6429C20.5223 22.6896 20.4983 22.7603 20.5114 22.8292L20.6468 23.5424ZM16.2058 16.9112C16.2832 16.7748 16.4803 16.7765 16.5553 16.9141L16.9424 17.624C16.973 17.6801 17.0285 17.7182 17.0918 17.7266L17.9153 17.8356C18.0847 17.8581 18.1497 18.0689 18.0224 18.1829L17.4535 18.6924C17.401 18.7393 17.3771 18.8104 17.3906 18.8795L17.5313 19.6044C17.5626 19.7658 17.3967 19.894 17.2484 19.8228L16.4768 19.4525C16.4228 19.4265 16.3599 19.4262 16.3056 19.4516L15.4959 19.83C15.3484 19.899 15.1847 19.7721 15.2147 19.612L15.3521 18.8788C15.365 18.8101 15.341 18.7396 15.2889 18.6929L14.7194 18.1829C14.5921 18.0689 14.6571 17.8581 14.8265 17.8356L15.6521 17.7263C15.7142 17.7181 15.7689 17.6812 15.7998 17.6267L16.2058 16.9112ZM14.1739 23.5424C14.2045 23.7034 14.0392 23.8308 13.8913 23.7602L13.127 23.3956C13.072 23.3694 13.0081 23.3697 12.9533 23.3963L12.2041 23.7612C12.0583 23.8322 11.8931 23.7093 11.9191 23.5493L12.0367 22.8263C12.0477 22.7589 12.0235 22.6907 11.9727 22.6452L11.4031 22.1351C11.2754 22.0208 11.3413 21.8093 11.5114 21.7877L12.3303 21.6837C12.3943 21.6756 12.4503 21.6372 12.481 21.5806L12.8629 20.8755C12.9388 20.7354 13.1401 20.736 13.2152 20.8765L13.5909 21.5797C13.6215 21.6369 13.6779 21.6757 13.7422 21.6838L14.5604 21.7877C14.7305 21.8093 14.7963 22.0208 14.6687 22.1351L14.1016 22.6429C14.0494 22.6896 14.0255 22.7603 14.0386 22.8292L14.1739 23.5424ZM12.3357 13.6817C12.3966 13.6717 12.4494 13.6342 12.4789 13.58L12.8632 12.8753C12.9393 12.7359 13.1397 12.7364 13.2149 12.8763L13.5912 13.5757C13.6216 13.6323 13.6774 13.6708 13.7411 13.6793L14.5638 13.7883C14.7332 13.8107 14.7983 14.0215 14.671 14.1355L14.1009 14.646C14.0491 14.6924 14.0251 14.7624 14.0375 14.8308L14.1771 15.598C14.2064 15.7589 14.0406 15.885 13.8933 15.8139L13.1279 15.444C13.0724 15.4172 13.0077 15.4174 12.9524 15.4447L12.2159 15.808C12.0681 15.881 11.9005 15.7538 11.9309 15.5918L12.0664 14.8688C12.0793 14.8001 12.0553 14.7296 12.0032 14.683L11.4209 14.1615C11.2957 14.0494 11.3562 13.8424 11.5219 13.8152L12.3357 13.6817ZM9.42445 16.9215C9.49946 16.7821 9.69905 16.781 9.77563 16.9195L10.1655 17.6249C10.1962 17.6805 10.2514 17.7181 10.3143 17.7265L11.1385 17.8356C11.3079 17.8581 11.3729 18.0689 11.2456 18.1829L10.6761 18.6929C10.624 18.7396 10.6 18.8101 10.6129 18.8788L10.7494 19.6071C10.7796 19.7681 10.614 19.8951 10.4663 19.8242L9.69327 19.4532C9.63839 19.4268 9.57451 19.4269 9.5197 19.4534L8.75549 19.8227C8.60777 19.8941 8.44167 19.767 8.4719 19.6058L8.60807 18.8793C8.62101 18.8103 8.59681 18.7396 8.5443 18.6929L7.97022 18.1832C7.84215 18.0694 7.90696 17.8578 8.07676 17.8353L8.89716 17.7267C8.96085 17.7182 9.0166 17.6797 9.04703 17.6231L9.42445 16.9215ZM6.10053 13.6814C6.16169 13.6716 6.21486 13.634 6.24451 13.5796L6.62977 12.8731C6.70556 12.7341 6.90515 12.7341 6.98095 12.8731L7.36459 13.5767C7.39515 13.6327 7.45063 13.6708 7.51391 13.6792L8.32555 13.7867C8.49687 13.8094 8.5607 14.024 8.42964 14.1367L7.84011 14.6433C7.78457 14.691 7.75956 14.7653 7.77491 14.8369L7.9356 15.5864C7.97044 15.7489 7.80334 15.8805 7.6535 15.8086L6.8922 15.4432C6.83732 15.4168 6.77344 15.4169 6.71863 15.4434L5.95442 15.8127C5.8067 15.8841 5.64059 15.7571 5.67082 15.5958L5.807 14.8694C5.81994 14.8003 5.79573 14.7296 5.74323 14.683L5.15781 14.1631C5.03163 14.0511 5.09237 13.8427 5.25899 13.8161L6.10053 13.6814ZM6.0972 21.6697C6.16026 21.661 6.21541 21.6228 6.24572 21.5668L6.6295 20.8583C6.70515 20.7187 6.90557 20.7187 6.98122 20.8583L7.36434 21.5656C7.39502 21.6223 7.45111 21.6607 7.51501 21.6688L8.32699 21.7719C8.49815 21.7936 8.56333 22.0073 8.43342 22.1209L7.83665 22.6425C7.78301 22.6894 7.75836 22.7612 7.77193 22.8312L7.91285 23.557C7.9441 23.7179 7.77904 23.846 7.63087 23.7758L6.85814 23.4097C6.80394 23.384 6.74106 23.384 6.68686 23.4097L5.92581 23.7703C5.77551 23.8415 5.609 23.7088 5.64488 23.5464L5.80252 22.8329C5.81816 22.7621 5.79425 22.6884 5.74002 22.6402L5.16682 22.1312C5.03913 22.0178 5.10312 21.8069 5.27228 21.7835L6.0972 21.6697ZM45.6243 37.8682C45.6253 37.9793 45.5355 38.0699 45.4244 38.07L4.66447 38.1071C4.55394 38.1072 4.46429 38.0176 4.46429 37.9071V35.5392C4.46429 35.4287 4.55383 35.3392 4.66429 35.3392H45.4032C45.513 35.3392 45.6022 35.4276 45.6032 35.5373L45.6243 37.8682ZM45.6242 33.2371C45.6253 33.3483 45.5354 33.4389 45.4243 33.4389H4.66429C4.55383 33.4389 4.46429 33.3494 4.46429 33.2389V30.9157C4.46429 30.8053 4.55383 30.7157 4.66429 30.7157H45.4032C45.513 30.7157 45.6022 30.8042 45.6032 30.9139L45.6242 33.2371ZM45.6242 28.8605C45.6253 28.9717 45.5354 29.0623 45.4243 29.0623H4.66429C4.55383 29.0623 4.46429 28.9728 4.46429 28.8623V26.5392C4.46429 26.4287 4.55383 26.3392 4.66429 26.3392H45.4032C45.513 26.3392 45.6022 26.4276 45.6032 26.5373L45.6242 28.8605ZM45.6242 23.9977C45.6253 24.1089 45.5354 24.1995 45.4243 24.1995H24.7893C24.6788 24.1995 24.5893 24.11 24.5893 23.9995V21.6763C24.5893 21.5659 24.6788 21.4763 24.7893 21.4763H45.4032C45.513 21.4763 45.6022 21.5648 45.6032 21.6745L45.6242 23.9977ZM45.6243 19.0675C45.6253 19.1787 45.5354 19.2693 45.4243 19.2693H24.7893C24.6788 19.2693 24.5893 19.1798 24.5893 19.0693V16.7387C24.5893 16.6282 24.6788 16.5387 24.7893 16.5387H45.4032C45.513 16.5387 45.6022 16.6271 45.6032 16.7368L45.6243 19.0675ZM45.6243 14.4216C45.6253 14.5328 45.5354 14.6234 45.4243 14.6234H24.7893C24.6788 14.6234 24.5893 14.5339 24.5893 14.4234V12.0928C24.5893 11.9823 24.6788 11.8928 24.7893 11.8928H45.4032C45.513 11.8928 45.6022 11.9812 45.6032 12.091L45.6243 14.4216Z" fill="var(--fill-0, #0268A0)"/>
</g>
</svg>
