<svg preserveAspectRatio="none" width="100%" height="100%" overflow="visible" style="display: block;" viewBox="0 0 52.2758 52.4194" fill="none" xmlns="http://www.w3.org/2000/svg">
<g id="Group 3">
<path id="Path 77" d="M26.1379 0C19.2082 0.00800705 12.5645 2.77194 7.66444 7.68548C2.76436 12.599 0.00798513 19.2609 0 26.2097C0.00781911 33.1585 2.76414 39.8205 7.66425 44.7341C12.5644 49.6476 19.2081 52.4115 26.1379 52.4194C33.0678 52.4117 39.7116 49.6478 44.6117 44.7342C49.5119 39.8206 52.2682 33.1586 52.2758 26.2097C52.268 19.2608 49.5117 12.5989 44.6116 7.68529C39.7114 2.77172 33.0677 0.00784058 26.1379 0ZM38.2892 45.6835C38.1584 45.6356 38.0434 45.5789 38.0434 45.536C38.0539 45.4265 38.0212 45.3172 37.9524 45.2314C37.8836 45.1457 37.784 45.0903 37.6751 45.0772C37.472 45.0772 36.6166 44.7362 36.3941 44.7362C36.289 44.7376 36.1881 44.7778 36.1106 44.849C36.0301 44.7784 35.6775 44.5301 35.6775 44.4078C35.6917 44.2616 35.6482 44.1157 35.5563 44.0013C35.4644 43.8869 35.3315 43.8131 35.186 43.7958C34.917 43.7958 34.2884 43.5122 34.0188 43.5122C33.7491 43.5122 31.3122 42.2756 31.04 42.2756C30.9763 42.2769 30.9136 42.292 30.8563 42.32C30.799 42.348 30.7485 42.3881 30.7081 42.4376C30.6741 42.3516 30.6161 42.2773 30.5411 42.2234C30.4661 42.1696 30.3772 42.1385 30.2851 42.1338C30.2319 42.1222 30.1843 42.0927 30.15 42.0504C30.1157 42.008 30.0969 41.9551 30.0966 41.9006C30.1108 41.7549 30.0677 41.6095 29.9764 41.4952C29.8852 41.381 29.753 41.3071 29.6082 41.2892C29.4309 41.2892 28.9733 40.911 28.7024 40.911C28.6722 40.911 27.8501 40.2291 27.5798 40.2291C27.3507 40.1643 27.1316 40.0683 26.9286 39.9435C26.7715 36.4001 26.3686 33.7126 26.214 32.3215C26.1354 31.6162 26.0832 31.2324 26.0832 31.2324C25.9795 30.563 25.9028 29.7197 25.8456 28.7554C25.5138 23.1396 25.8425 13.3702 26.043 9.13972C26.0719 8.49116 26.0996 7.96678 26.119 7.61256C26.119 7.54953 26.126 7.49595 26.1291 7.44742C26.1291 7.38061 26.1341 7.32137 26.1379 7.27977C26.1417 7.20224 26.1436 7.1619 26.1436 7.1619C25.8456 7.70555 25.6692 8.30778 25.6269 8.92669C25.0065 12.593 24.6171 16.2948 24.4609 20.0102C24.3981 21.2462 24.3641 22.4204 24.344 23.5152C24.2717 25.9496 24.3399 28.3861 24.5483 30.8126C24.7589 33.722 24.9499 36.5482 25.2397 40.0904C25.1542 40.1213 25.0643 40.1534 24.97 40.1963C24.5489 40.3746 24.0901 40.6324 24.0366 40.8228C23.9958 40.964 23.8562 41.119 23.7456 41.119C23.5325 41.119 23.024 41.8987 22.9681 41.8987C22.5088 42.0726 22.1269 42.4061 21.892 42.8384C21.742 43.0627 21.5118 43.2207 21.249 43.2796C20.9787 43.2796 20.4633 43.8916 20.193 43.8916C20.0044 43.8916 19.2653 44.0921 18.9988 44.0921C18.8997 44.0977 18.8047 44.1332 18.7262 44.1939C18.6477 44.2546 18.5893 44.3378 18.5588 44.4324C18.3615 44.267 18.1105 44.1802 17.8535 44.1885C17.3783 44.1885 16.7592 44.6435 16.636 44.6435C16.5478 44.6443 16.4622 44.6732 16.3915 44.7261C16.3205 44.673 16.2343 44.6441 16.1457 44.6435C16.1223 44.6439 16.0989 44.6464 16.076 44.6511C16.0532 44.6465 16.0301 44.6439 16.0068 44.6435C15.734 44.6435 15.0112 45.5039 14.8365 45.5039C14.6309 45.5493 14.4325 45.6226 14.2469 45.722H14.0401C10.7309 43.66 8.00046 40.7863 6.10652 37.3722C4.21259 33.9582 3.21766 30.1164 3.2157 26.2097C3.22268 20.1161 5.63981 14.2741 9.93681 9.96535C14.2338 5.65655 20.0598 3.23279 26.1367 3.22578C32.2138 3.23229 38.0403 5.65583 42.3377 9.96468C46.6351 14.2735 49.0525 20.1158 49.0595 26.2097C49.057 30.1049 48.0674 33.9355 46.1834 37.3419C44.2994 40.7483 41.583 43.6187 38.2892 45.6835Z" fill="var(--fill-0, #5FA042)"/>
<path id="Path 78" d="M22.9287 26.5881C21.8885 24.9623 20.286 23.7794 18.4289 23.2665C18.1988 23.1933 17.96 23.1265 17.7104 23.0641C17.7104 23.0641 14.3055 22.2618 12.9108 22.3828C12.9108 22.3828 12.9328 22.3935 12.9787 22.4137C13.1672 22.4988 13.5682 22.7685 14.3854 23.1927C16.2581 24.1515 18.0382 25.2823 19.703 26.5704C21.6006 28.0749 23.3888 28.9573 24.0029 30.9465C23.9904 29.9875 23.8683 29.0331 23.639 28.102C23.4584 27.5727 23.2202 27.065 22.9287 26.5881Z" fill="var(--fill-0, #5FA042)"/>
<path id="Path 79" d="M29.2671 14.7378C30.3906 14.0304 31.5771 13.429 32.8115 12.9415C33.3502 12.7253 33.7374 12.5917 33.8612 12.5488C33.8907 12.5387 33.9058 12.535 33.9058 12.535C32.8459 12.4746 31.7828 12.5168 30.731 12.661C30.5707 12.6831 30.4167 12.7114 30.2677 12.7436C29.0701 12.9519 27.9916 13.5971 27.24 14.555C26.5875 15.3895 26.3311 17.3762 26.2971 17.8249C26.9689 16.5298 28.0005 15.4576 29.2671 14.7378Z" fill="var(--fill-0, #5FA042)"/>
<path id="Path 80" d="M27.4897 30.9307C27.7148 30.625 27.9354 30.2915 28.1937 29.9688C28.464 29.6581 28.7186 29.3159 29.0297 29.0152L29.4842 28.5469L29.9694 28.1057C30.1995 27.8858 30.4515 27.6916 30.7004 27.4962C30.7878 27.4269 30.8745 27.3582 30.9631 27.2901L30.977 27.2794C30.9802 27.2759 30.984 27.2729 30.9883 27.2706C31.1046 27.1824 31.2196 27.0935 31.3378 27.0097C31.6671 26.7809 31.9978 26.5628 32.3328 26.3762C32.3956 26.339 32.4623 26.3063 32.5264 26.271C32.5301 26.2695 32.5335 26.2673 32.5364 26.2647L32.5653 26.2502C32.6797 26.1871 32.7935 26.1273 32.9066 26.0712L33.0456 25.9968C33.3221 25.8569 33.5918 25.7403 33.8489 25.635C32.514 25.7479 31.2115 26.1076 30.0071 26.6958C29.6974 26.8819 29.3982 27.0849 29.1108 27.304C28.1956 27.9525 27.4667 28.8311 26.9976 29.8516C26.9096 30.0562 26.8363 30.2668 26.7782 30.4819C26.7313 30.6539 26.6946 30.8286 26.6682 31.005C26.6984 31.4406 26.7392 31.8244 26.7902 32.1465C26.8386 32.05 26.8844 31.9536 26.9354 31.8515C27.1076 31.5609 27.2892 31.2546 27.4897 30.9307Z" fill="var(--fill-0, #5FA042)"/>
<path id="Path 81" d="M35.2089 25.343C35.1202 25.3568 35.031 25.3719 34.9317 25.3921C34.8424 25.4135 34.7431 25.4388 34.6482 25.4633C34.4263 25.532 34.1925 25.6278 33.9373 25.7337C33.645 25.8673 33.3307 26.0205 33.0114 26.2033C32.8526 26.2978 32.69 26.3945 32.5237 26.4932C32.3603 26.5953 32.1993 26.7126 32.0328 26.8241C31.694 27.0403 31.3791 27.3151 31.0428 27.5678C30.7317 27.8527 30.3929 28.1156 30.1 28.4276L29.6487 28.8801C29.5087 29.0402 29.3696 29.1992 29.2313 29.3572C28.9447 29.6648 28.7153 30.0108 28.4695 30.3228C28.2375 30.6455 28.0408 30.9789 27.8409 31.2808C27.6706 31.601 27.5078 31.9048 27.3582 32.1828L27.0188 32.9763C26.9993 33.016 26.9855 33.0557 26.9691 33.0942C26.9421 33.1799 26.9232 33.2366 26.9151 33.2631C27.6819 33.0629 28.4218 32.7707 29.1188 32.3927C30.129 31.8551 31.0556 31.1727 31.8693 30.3669C32.9605 29.276 33.8405 27.9916 34.4647 26.5789C34.8312 25.9533 35.4272 25.4961 36.1253 25.3051L36.0681 25.3014C35.781 25.2881 35.4933 25.302 35.2089 25.343Z" fill="var(--fill-0, #5FA042)"/>
<path id="Path 82" d="M22.7672 12.441C22.5743 12.295 22.374 12.1593 22.1669 12.0344C21.3611 11.6407 20.4894 11.4 19.5961 11.3247C19.7684 11.3947 19.9481 11.4722 20.1335 11.5667L20.2272 11.6153C20.3026 11.6531 20.3787 11.6941 20.4547 11.735C20.4609 11.7394 20.4674 11.7432 20.4742 11.7464L20.4811 11.7502L20.6069 11.8195C20.8319 11.9456 21.0525 12.0911 21.2731 12.2437C21.3517 12.3004 21.429 12.359 21.5069 12.4189L21.5151 12.4246L21.5239 12.4309C21.5868 12.4762 21.6415 12.5229 21.6993 12.5702C21.8691 12.6977 22.0323 12.8338 22.1883 12.978L22.5145 13.2717C22.6157 13.3776 22.7169 13.4815 22.8169 13.5868C23.0255 13.7879 23.194 14.0179 23.3775 14.2253C23.5491 14.4415 23.6975 14.6633 23.8477 14.8694C23.9338 15.0106 24.0991 15.3352 24.2097 15.5274L24.3097 14.582C24.2651 14.4257 24.2066 14.2165 24.1771 14.1471C23.8647 13.4641 23.3784 12.8757 22.7672 12.441Z" fill="var(--fill-0, #5FA042)"/>
<path id="Path 83" d="M24.0933 16.1964C24.0255 16.0367 23.9496 15.8598 23.8658 15.6657L23.5427 15.0612C23.4082 14.8583 23.2775 14.637 23.1222 14.4202C22.9569 14.2116 22.8029 13.979 22.6118 13.7742L22.3328 13.4553L22.0304 13.1521C21.8337 12.9435 21.6068 12.7676 21.3987 12.5767C21.1743 12.4077 20.9638 12.2243 20.7362 12.0794C20.6243 12.0037 20.5175 11.9256 20.4081 11.8581C20.2987 11.7907 20.1881 11.7277 20.0819 11.664C19.8676 11.5411 19.6576 11.439 19.4621 11.3489C19.2912 11.2789 19.1347 11.214 18.9857 11.168C18.9228 11.1516 18.86 11.1352 18.7971 11.1213C18.7343 11.1075 18.6714 11.0967 18.6086 11.0886C18.4191 11.0604 18.2273 11.0507 18.0359 11.0596C18.0127 11.0596 17.9982 11.0596 17.9982 11.0596C18.4655 11.1879 18.8641 11.4944 19.1089 11.9136C19.5271 12.8587 20.1166 13.7179 20.8475 14.4473C21.3909 14.9872 22.0106 15.444 22.6866 15.8031C23.1524 16.0571 23.6477 16.2525 24.1612 16.3848C24.1549 16.3678 24.143 16.3294 24.1248 16.2726C24.116 16.2487 24.1053 16.2235 24.0933 16.1964Z" fill="var(--fill-0, #5FA042)"/>
</g>
</svg>
