<svg preserveAspectRatio="none" width="100%" height="100%" overflow="visible" style="display: block;" viewBox="0 0 29.81 30.6667" fill="none" xmlns="http://www.w3.org/2000/svg">
<g id="Group 1000006026">
<path id="Vector" fill-rule="evenodd" clip-rule="evenodd" d="M14.905 9.75765C11.8256 9.75765 9.32922 12.254 9.32922 15.3334C9.32922 18.4129 11.8256 20.9091 14.905 20.9091C17.9843 20.9091 20.4807 18.4129 20.4807 15.3334C20.4807 12.254 17.9843 9.75765 14.905 9.75765ZM12.1171 15.3334C12.1171 13.7938 13.3652 12.5455 14.905 12.5455C16.4447 12.5455 17.6929 13.7938 17.6929 15.3334C17.6929 16.8731 16.4447 18.1212 14.905 18.1212C13.3652 18.1212 12.1171 16.8731 12.1171 15.3334Z" fill="var(--fill-0, #0268A0)"/>
<path id="Vector_2" fill-rule="evenodd" clip-rule="evenodd" d="M14.905 9.75765C11.8256 9.75765 9.32922 12.254 9.32922 15.3334C9.32922 18.4129 11.8256 20.9091 14.905 20.9091C17.9843 20.9091 20.4807 18.4129 20.4807 15.3334C20.4807 12.254 17.9843 9.75765 14.905 9.75765ZM12.1171 15.3334C12.1171 13.7938 13.3652 12.5455 14.905 12.5455C16.4447 12.5455 17.6929 13.7938 17.6929 15.3334C17.6929 16.8731 16.4447 18.1212 14.905 18.1212C13.3652 18.1212 12.1171 16.8731 12.1171 15.3334Z" fill="var(--fill-0, #0268A0)"/>
<path id="Vector_3" fill-rule="evenodd" clip-rule="evenodd" d="M13.1867 0.0239052C13.5006 -0.000155531 13.8532 -1.46717e-05 14.1406 9.68434e-05H15.6695C15.9569 -1.46717e-05 16.3094 -0.000155531 16.6233 0.0239052C16.9944 0.0523416 17.5086 0.124645 18.0601 0.375568C18.7572 0.692717 19.3538 1.19519 19.7848 1.82819C20.1259 2.32901 20.2845 2.82351 20.3757 3.18426C20.4528 3.48958 20.5126 3.83688 20.5612 4.12015L20.7586 5.26408L20.7625 5.26621C20.811 5.29303 20.8592 5.32017 20.9073 5.34765L20.911 5.34966L22.2169 4.87699C22.4819 4.78098 22.8077 4.66293 23.1063 4.57977C23.4598 4.48132 23.9592 4.3755 24.5533 4.41923C25.3058 4.4746 26.0291 4.73246 26.6469 5.1655C27.1346 5.50746 27.4545 5.90531 27.666 6.2052C27.8448 6.45856 28.0224 6.7561 28.167 6.99806L28.8664 8.1686C29.0195 8.42428 29.206 8.73607 29.35 9.02621C29.5195 9.36777 29.7265 9.86183 29.7891 10.4834C29.8677 11.2662 29.7241 12.0553 29.3745 12.7601C29.0969 13.3197 28.7289 13.709 28.4498 13.969C28.2128 14.1897 27.9283 14.4158 27.6951 14.601L26.7535 15.3334L27.6951 16.0658C27.9283 16.2512 28.2128 16.4771 28.4498 16.6979C28.7289 16.9578 29.0969 17.3471 29.3744 17.9068C29.724 18.6115 29.8677 19.4006 29.789 20.1835C29.7265 20.805 29.5194 21.299 29.3499 21.6407C29.2059 21.9308 29.0194 22.2426 28.8664 22.4982L28.1667 23.669C28.0223 23.911 27.8447 24.2083 27.666 24.4616C27.4544 24.7616 27.1346 25.1594 26.6467 25.5013C26.0291 25.9344 25.3056 26.1923 24.5533 26.2477C23.9592 26.2914 23.4598 26.1855 23.1063 26.0871C22.8075 26.0039 22.4818 25.8859 22.2168 25.7899L20.9108 25.3172L20.9073 25.3193C20.8592 25.3468 20.811 25.3738 20.7625 25.4007L20.7586 25.4028L20.5612 26.5467C20.5126 26.8299 20.4528 27.1773 20.3757 27.4826C20.2845 27.8433 20.1259 28.3379 19.7848 28.8387C19.3538 29.4717 18.7572 29.9742 18.0601 30.2913C17.5086 30.5422 16.9944 30.6146 16.6233 30.643C16.3093 30.667 15.9569 30.6669 15.6695 30.6667H14.1406C13.8532 30.6669 13.5006 30.667 13.1867 30.643C12.8157 30.6146 12.3014 30.5422 11.7499 30.2913C11.0529 29.9742 10.4563 29.4717 10.0252 28.8387C9.68419 28.3379 9.52551 27.8433 9.43441 27.4826C9.35731 27.1773 9.29754 26.8299 9.24878 26.5467L9.05144 25.4028L9.04758 25.4007C8.99906 25.3738 8.95076 25.3468 8.90268 25.3192L8.89914 25.3172L7.59324 25.7899C7.32828 25.8858 7.00249 26.0039 6.70381 26.0871C6.35027 26.1855 5.85089 26.2913 5.25677 26.2477C4.50439 26.1923 3.781 25.9344 3.16325 25.5013C2.67546 25.1594 2.3556 24.7616 2.14407 24.4616C1.96536 24.2083 1.78771 23.9109 1.64325 23.6689L0.9436 22.4982C0.790671 22.2426 0.604162 21.9308 0.460168 21.6407C0.290637 21.299 0.0835541 20.805 0.0210499 20.1835C-0.0576658 19.4006 0.0860353 18.6115 0.435621 17.9068C0.713238 17.3471 1.0812 16.9578 1.36025 16.6979C1.59727 16.4771 1.88171 16.2512 2.11494 16.0658L3.02651 15.3409V15.326L2.11488 14.601C1.88164 14.4158 1.59722 14.1897 1.36019 13.969C1.08114 13.709 0.713182 13.3197 0.435565 12.7601C0.0859794 12.0553 -0.0577217 11.2662 0.0209801 10.4835C0.0834843 9.86186 0.290582 9.36779 0.460099 9.02622C0.604092 8.7361 0.790615 8.42431 0.943544 8.16863L1.64318 6.99802C1.78764 6.75607 1.9653 6.45856 2.144 6.20521C2.35555 5.90532 2.67539 5.50748 3.1632 5.16553C3.78093 4.73248 4.50433 4.47461 5.25671 4.41924C5.85082 4.37552 6.35021 4.48133 6.70374 4.57978C7.00241 4.66296 7.3282 4.78101 7.59315 4.87701L8.89913 5.34967L8.90265 5.34765C8.95074 5.32019 8.99906 5.29303 9.04758 5.26621L9.05144 5.26408L9.24878 4.12016C9.29754 3.8369 9.35731 3.48958 9.43441 3.18426C9.52551 2.82351 9.68419 2.32901 10.0252 1.82819C10.4563 1.19519 11.0529 0.692717 11.7499 0.375568C12.3014 0.124645 12.8157 0.0523416 13.1867 0.0239052ZM17.8237 4.65068C17.7082 3.98164 17.6505 3.64714 17.4805 3.39735C17.3368 3.18635 17.138 3.01885 16.9056 2.91314C16.6305 2.78799 16.291 2.78799 15.6122 2.78799H14.1979C13.519 2.78799 13.1795 2.78799 12.9045 2.91314C12.6721 3.01885 12.4733 3.18635 12.3296 3.39735C12.1595 3.64714 12.1018 3.98164 11.9863 4.65068L11.7688 5.91127C11.6912 6.36108 11.6524 6.58598 11.5702 6.75886C11.4895 6.92861 11.4235 7.02139 11.2897 7.1533C11.1533 7.28765 10.901 7.42713 10.3964 7.70608C10.3592 7.72666 10.3221 7.74747 10.2853 7.76853C9.80261 8.04419 9.56128 8.18203 9.38204 8.2287C9.20603 8.27453 9.0964 8.28397 8.91513 8.26887C8.73057 8.25351 8.52381 8.17868 8.1103 8.02903L6.69744 7.5177C6.07124 7.29108 5.75814 7.17776 5.46131 7.19961C5.21053 7.21805 4.96939 7.30401 4.76348 7.44835C4.51978 7.6192 4.34895 7.90502 4.00731 8.47666L3.36698 9.54807C3.00629 10.1516 2.82595 10.4533 2.79488 10.7624C2.76864 11.0233 2.81654 11.2863 2.93307 11.5212C3.07108 11.7995 3.34622 12.0183 3.89649 12.4559L4.90694 13.2595C5.25796 13.5386 5.43348 13.6782 5.5435 13.8278C5.66244 13.9896 5.71317 14.0947 5.76573 14.2885C5.81438 14.4678 5.81438 14.7563 5.81438 15.3334C5.81438 15.9105 5.81438 16.199 5.76573 16.3784C5.71316 16.5722 5.66244 16.6773 5.54353 16.839C5.43348 16.9887 5.25796 17.1282 4.90691 17.4074L3.89656 18.2109C3.34629 18.6486 3.07115 18.8673 2.93313 19.1457C2.81659 19.3806 2.7687 19.6436 2.79493 19.9045C2.82602 20.2136 3.00635 20.5152 3.36703 21.1188L4.00736 22.1902C4.34902 22.7618 4.51983 23.0477 4.76353 23.2185C4.96946 23.3629 5.21058 23.4488 5.46138 23.4673C5.75819 23.4891 6.0713 23.3757 6.69751 23.1492L8.11032 22.6379C8.52381 22.4882 8.73059 22.4134 8.91514 22.398C9.09641 22.383 9.20604 22.3923 9.38206 22.4382C9.56129 22.4849 9.80261 22.6227 10.2853 22.8983C10.3222 22.9194 10.3592 22.9403 10.3964 22.9608C10.901 23.2397 11.1533 23.3792 11.2896 23.5136C11.4235 23.6455 11.4895 23.7383 11.5702 23.9081C11.6524 24.0809 11.6912 24.3058 11.7688 24.7556L11.9863 26.0161C12.1018 26.6852 12.1595 27.0198 12.3296 27.2696C12.4733 27.4805 12.6721 27.648 12.9045 27.7537C13.1795 27.8789 13.519 27.8789 14.1979 27.8789H15.6122C16.291 27.8789 16.6305 27.8789 16.9056 27.7537C17.138 27.648 17.3368 27.4805 17.4805 27.2696C17.6505 27.0198 17.7082 26.6852 17.8237 26.0161L18.0413 24.7556C18.1188 24.3058 18.1577 24.0809 18.2398 23.9081C18.3205 23.7383 18.3865 23.6455 18.5204 23.5136C18.6568 23.3792 18.9091 23.2397 19.4136 22.9608C19.4508 22.9403 19.4879 22.9194 19.5247 22.8983C20.0074 22.6227 20.2487 22.4849 20.428 22.4382C20.604 22.3923 20.7136 22.383 20.8949 22.398C21.0795 22.4134 21.2862 22.4882 21.6996 22.6379L23.1125 23.1492C23.7387 23.3759 24.0519 23.4892 24.3487 23.4673C24.5995 23.4488 24.8406 23.3629 25.0465 23.2185C25.2902 23.0477 25.4611 22.7618 25.8027 22.1902L26.4431 21.1188C26.8037 20.5154 26.9841 20.2136 27.0152 19.9045C27.0414 19.6436 26.9934 19.3806 26.8769 19.1457C26.7389 18.8675 26.4637 18.6486 25.9135 18.2109L24.9032 17.4074C24.5521 17.1282 24.3766 16.9887 24.2666 16.839C24.1477 16.6773 24.0969 16.5722 24.0443 16.3784C23.9956 16.1992 23.9956 15.9105 23.9956 15.3334C23.9956 14.7563 23.9956 14.4678 24.0443 14.2885C24.0969 14.0947 24.1477 13.9896 24.2666 13.8278C24.3766 13.6782 24.5521 13.5386 24.9031 13.2595L25.9135 12.4559C26.4639 12.0183 26.739 11.7995 26.877 11.5212C26.9935 11.2863 27.0414 11.0233 27.0152 10.7623C26.9841 10.4533 26.8038 10.1516 26.4431 9.54806L25.8027 8.47665C25.4611 7.90501 25.2903 7.61918 25.0466 7.44834C24.8406 7.304 24.5996 7.21803 24.3487 7.19958C24.0519 7.17774 23.7388 7.29105 23.1125 7.51769L21.6998 8.02901C21.2862 8.17867 21.0795 8.25349 20.8949 8.26886C20.7136 8.28395 20.604 8.27451 20.428 8.22868C20.2487 8.18201 20.0074 8.04418 19.5248 7.76853C19.4879 7.74747 19.4508 7.72666 19.4137 7.70608C18.9091 7.42713 18.6568 7.28765 18.5204 7.1533C18.3865 7.02139 18.3205 6.92861 18.2398 6.75886C18.1577 6.58598 18.1188 6.36107 18.0413 5.91127L17.8237 4.65068Z" fill="var(--fill-0, #0268A0)"/>
</g>
</svg>
