<svg preserveAspectRatio="none" width="100%" height="100%" overflow="visible" style="display: block;" viewBox="0 0 197.796 23.7517" fill="none" xmlns="http://www.w3.org/2000/svg">
<g id="Group 2">
<path id="Path 63" d="M6.53502 23.7517C2.62669 23.7517 0 20.4873 0 11.8762C0 3.2652 2.62669 0 6.53502 0C10.4433 0 13.07 3.26445 13.07 11.8762C13.07 20.488 10.4433 23.7517 6.53502 23.7517ZM6.53502 2.11269C4.297 2.11269 2.49838 4.03305 2.49838 11.8785C2.49838 19.7239 4.29327 21.6443 6.53502 21.6443C8.77677 21.6443 10.5717 19.7246 10.5717 11.8785C10.5717 4.0323 8.77751 2.11493 6.53502 2.11493V2.11269Z" fill="var(--fill-0, white)"/>
<path id="Path 64" d="M20.0206 0.320556L25.9782 17.3503H26.0416V0.320556H28.5407V23.4304H25.8499L18.6748 3.32633H18.6106V23.4356H16.1115V0.325777L20.0206 0.320556Z" fill="var(--fill-0, white)"/>
<path id="Path 65" d="M42.744 0.320556V2.43324H34.6707V10.3077H40.6298V12.4204H34.6707V21.3207H43.1252V23.4356H32.1723V0.325777L42.744 0.320556Z" fill="var(--fill-0, white)"/>
<path id="Path 66" d="M48.6516 3.77734H44.8074V0.320556H56.4683V3.77734H52.6241V23.4356H48.6516V3.77734Z" fill="var(--fill-0, white)"/>
<path id="Path 67" d="M62.7414 23.4356H58.7689V0.325777H64.3438C68.7953 0.325777 71.0706 2.21333 71.0706 7.14393C71.0706 10.8579 69.6293 12.3623 68.2835 12.9706L71.6473 23.4356H67.6114L64.7915 13.8629C64.1104 13.9323 63.426 13.9646 62.7414 13.9598V23.4356ZM62.7414 10.6939H64.1506C66.2976 10.6939 67.0981 9.894 67.0981 7.14095C67.0981 4.38789 66.2976 3.58799 64.1506 3.58799H62.7414V10.6939Z" fill="var(--fill-0, white)"/>
<path id="Path 68" d="M74.3381 23.4356V0.325777H84.9762V3.78257H78.3128V9.73745H83.4386V13.1935H78.3128V19.9811H85.4238V23.4356H74.3381Z" fill="var(--fill-0, white)"/>
<path id="Path 69" d="M88.1042 23.4356V0.325777H98.7407V3.78257H92.0774V9.73745H97.204V13.1935H92.0774V19.9811H99.1898V23.4356H88.1042Z" fill="var(--fill-0, white)"/>
<path id="Path 70" d="M101.811 0.320556H107.256C110.972 0.320556 113.406 2.81717 113.406 6.65713C113.406 10.4971 110.972 12.9937 107.256 12.9937H104.309V23.4304H101.81L101.811 0.320556ZM104.31 10.8847H106.935C109.434 10.8847 110.909 9.54288 110.909 6.65937C110.909 3.77586 109.434 2.43324 106.935 2.43324H104.31V10.8847Z" fill="var(--fill-0, white)"/>
<path id="Path 71" d="M118.456 0.320556V21.3207H125.953V23.4356H115.956V0.325777L118.456 0.320556Z" fill="var(--fill-0, white)"/>
<path id="Path 72" d="M135.961 0.320556L141.055 23.4304H138.556L137.179 16.5787H131.286L129.907 23.4356H127.408L132.5 0.325777L135.961 0.320556ZM131.634 14.469H136.824L134.262 2.04858H134.198L131.634 14.469Z" fill="var(--fill-0, white)"/>
<path id="Path 73" d="M147.119 0.320556L153.076 17.3503H153.139V0.320556H155.639V23.4304H152.948L145.776 3.32931H145.712V23.4356H143.214V0.325777L147.119 0.320556Z" fill="var(--fill-0, white)"/>
<path id="Path 74" d="M169.749 0.320556V2.43324H165.006V23.4356H162.507V2.43548H157.766V0.322797L169.749 0.320556Z" fill="var(--fill-0, white)"/>
<path id="Path 75" d="M182.596 0.320556V2.43324H174.525V10.3077H180.482V12.4204H174.525V21.3207H182.983V23.4356H172.025V0.325777L182.596 0.320556Z" fill="var(--fill-0, white)"/>
<path id="Path 76" d="M185.687 0.320556H189.981C194.849 0.320556 197.796 3.00875 197.796 11.8755C197.796 20.7422 194.849 23.4304 189.981 23.4304H185.687V0.320556ZM188.186 21.3207H189.529C193.184 21.3207 195.296 19.7828 195.296 11.8762C195.296 3.96968 193.182 2.43324 189.529 2.43324H188.186V21.3207Z" fill="var(--fill-0, white)"/>
</g>
</svg>
