<svg preserveAspectRatio="none" width="100%" height="100%" overflow="visible" style="display: block;" viewBox="0 0 42.8645 42.857" fill="none" xmlns="http://www.w3.org/2000/svg">
<g id="Group">
<path id="Vector" d="M21.4335 23.6443C23.2019 23.6443 24.898 22.9418 26.1484 21.6913C27.3989 20.4408 28.1014 18.7448 28.1014 16.9764C28.1014 15.2079 27.3989 13.5119 26.1484 12.2615C24.898 11.011 23.2019 10.3085 21.4335 10.3085C19.6651 10.3085 17.9691 11.011 16.7186 12.2615C15.4681 13.5119 14.7656 15.2079 14.7656 16.9764C14.7656 18.7448 15.4681 20.4408 16.7186 21.6913C17.9691 22.9418 19.6651 23.6443 21.4335 23.6443Z" stroke="var(--stroke-0, #6ABFEF)" stroke-width="2.85714" stroke-linecap="round" stroke-linejoin="round"/>
<path id="Vector_2" d="M7.63025 24.9123L1.42858 33.7822L8.16368 35.7825L12.3415 41.4284L18.6093 32.4934M35.2353 24.9123L41.4359 33.7811L34.7019 35.7815L30.523 41.4273L24.2552 32.4923" stroke="var(--stroke-0, #6ABFEF)" stroke-width="2.85714" stroke-linecap="round" stroke-linejoin="round"/>
<path id="Vector_3" d="M37.6133 16.979C37.6133 18.669 36.124 20.0911 35.6343 21.6028C35.1457 23.1135 35.4796 25.1811 34.5237 26.4923C33.5678 27.8034 31.5226 28.0926 30.3224 29.0709C29.1222 30.0492 28.1001 31.8714 26.5446 32.3824C24.9881 32.8935 23.232 31.9151 21.5432 31.9151C19.8543 31.9151 18.0545 32.8711 16.5428 32.3824C15.031 31.8927 14.0751 30.0033 12.764 29.0709C11.4517 28.1374 9.40762 27.8034 8.45171 26.4923C7.4958 25.18 7.85213 23.1583 7.3411 21.6028C6.82901 20.0463 5.25112 18.669 5.25112 16.979C5.25112 15.2891 6.74046 13.8681 7.22908 12.3563C7.71771 10.8446 7.38485 8.77804 8.34075 7.46687C9.29666 6.15569 11.3418 5.86657 12.653 4.88826C13.9642 3.90994 14.7643 2.08773 16.4308 1.57671C18.0983 1.06461 19.7434 2.04293 21.4322 2.04293C23.1211 2.04293 24.9209 1.08702 26.4337 1.57671C27.9443 2.06533 28.9003 3.95475 30.3224 4.88826C31.7445 5.82176 33.6787 6.15462 34.6346 7.46687C35.5906 8.77911 35.2353 10.8008 35.7463 12.3563C36.2573 13.9118 37.6133 15.2902 37.6133 16.979Z" stroke="var(--stroke-0, #6ABFEF)" stroke-width="2.85714" stroke-linecap="round" stroke-linejoin="round"/>
</g>
</svg>
