<svg preserveAspectRatio="none" width="100%" height="100%" overflow="visible" style="display: block;" viewBox="0 0 24 24" fill="none" xmlns="http://www.w3.org/2000/svg">
<g id="productreturnsminor-svgrepo-com 1">
<path id="Vector" d="M21 14.2552C21 16.044 20.2888 17.7596 19.023 19.0244C17.7571 20.2893 16.0402 21 14.25 21H4.125C3.82665 21 3.54045 20.8815 3.32951 20.6707C3.11858 20.46 3 20.174 3 19.8759C3 19.5777 3.11858 19.2918 3.32951 19.081C3.54045 18.8701 3.82665 18.7517 4.125 18.7517H14.25C15.4435 18.7517 16.5881 18.278 17.432 17.4347C18.2759 16.5915 18.75 15.4478 18.75 14.2552C18.75 13.0626 18.2759 11.9189 17.432 11.0756C16.5881 10.2324 15.4435 9.75863 14.25 9.75863H6.90825L9.42037 12.3363C9.62535 12.5483 9.73875 12.8323 9.73616 13.127C9.73358 13.4218 9.61523 13.7037 9.40665 13.9121C9.19808 14.1205 8.91592 14.2388 8.62095 14.2414C8.32597 14.2438 8.0418 14.1305 7.82963 13.9258L3.32962 9.42926C3.11869 9.21845 3.00023 8.93257 3.00023 8.63449C3.00023 8.33642 3.11869 8.05054 3.32962 7.83973L7.82963 3.34318C7.93335 3.23582 8.05755 3.15018 8.1948 3.09127C8.33205 3.03235 8.47965 3.00133 8.62905 3.00004C8.77845 2.99875 8.92661 3.02719 9.06487 3.08371C9.20314 3.14023 9.32869 3.2237 9.43433 3.32925C9.53996 3.4348 9.62344 3.56031 9.68003 3.69847C9.73661 3.83661 9.76507 3.98464 9.76384 4.1339C9.76249 4.28316 9.73144 4.43067 9.67249 4.56782C9.61354 4.70497 9.52781 4.82901 9.42037 4.93271L6.90825 7.51036H14.25C16.0402 7.51036 17.7571 8.22097 19.023 9.48587C20.2888 10.7508 21 12.4663 21 14.2552Z" fill="var(--fill-0, #0268A0)"/>
</g>
</svg>
