<svg preserveAspectRatio="none" width="100%" height="100%" overflow="visible" style="display: block;" viewBox="0 0 24 21" fill="none" xmlns="http://www.w3.org/2000/svg">
<g id="Frame">
<path id="Vector" d="M21.7289 11.6812H2.26944C1.55593 11.6812 0.972147 11.0906 0.972147 10.3687C0.972147 9.64687 1.55593 9.05625 2.26944 9.05625H21.7289C22.4424 9.05625 23.0262 9.64687 23.0262 10.3687C23.0262 11.0906 22.4424 11.6812 21.7289 11.6812ZM21.7289 4.13437H2.26944C1.55593 4.13437 0.972147 3.54375 0.972147 2.82187C0.972147 2.1 1.55593 1.50937 2.26944 1.50937H21.7289C22.4424 1.50937 23.0262 2.1 23.0262 2.82187C23.0262 3.54375 22.4424 4.13437 21.7289 4.13437ZM21.7289 19.2281H2.26944C1.55593 19.2281 0.972147 18.6375 0.972147 17.9156C0.972147 17.1937 1.55593 16.6031 2.26944 16.6031H21.7289C22.4424 16.6031 23.0262 17.1937 23.0262 17.9156C23.0262 18.6375 22.4424 19.2281 21.7289 19.2281Z" fill="var(--fill-0, #0268A0)"/>
</g>
</svg>
