<svg preserveAspectRatio="none" width="100%" height="100%" overflow="visible" style="display: block;" viewBox="0 0 30 30" fill="none" xmlns="http://www.w3.org/2000/svg">
<g id="shipping-truck-svgrepo-com 1" clip-path="url(#clip0_1_20199)">
<path id="Vector" fill-rule="evenodd" clip-rule="evenodd" d="M1.25 7.25C1.25 5.86929 2.36929 4.75 3.75 4.75H17.5C18.8808 4.75 20 5.86929 20 7.25V8.5H23.75C26.5114 8.5 28.75 10.7386 28.75 13.5V14.75V18.5V21C29.4404 21 30 21.5596 30 22.25C30 22.9404 29.4404 23.5 28.75 23.5H27.5H23.6875C23.7285 23.702 23.75 23.911 23.75 24.125C23.75 25.8509 22.3509 27.25 20.625 27.25C18.8991 27.25 17.5 25.8509 17.5 24.125C17.5 23.911 17.5215 23.702 17.5625 23.5H9.93749C9.97848 23.702 10 23.911 10 24.125C10 25.8509 8.60089 27.25 6.875 27.25C5.14911 27.25 3.75 25.8509 3.75 24.125C3.75 23.911 3.77153 23.702 3.81251 23.5H2.5H1.25C0.559644 23.5 5.72205e-07 22.9404 5.72205e-07 22.25C5.72205e-07 21.5596 0.559644 21 1.25 21V7.25ZM20.625 23.5C20.2799 23.5 20 23.7799 20 24.125C20 24.4701 20.2799 24.75 20.625 24.75C20.9701 24.75 21.25 24.4701 21.25 24.125C21.25 23.7799 20.9701 23.5 20.625 23.5ZM20.625 21H26.25V18.5V16H23.75C23.0596 16 22.5 15.4404 22.5 14.75C22.5 14.0596 23.0596 13.5 23.75 13.5H26.25C26.25 12.1193 25.1308 11 23.75 11H20V21H20.625ZM17.5 21H6.875H3.75V7.25H17.5V9.75V21ZM6.25 24.125C6.25 23.7799 6.52983 23.5 6.875 23.5C7.22018 23.5 7.5 23.7799 7.5 24.125C7.5 24.4701 7.22018 24.75 6.875 24.75C6.52983 24.75 6.25 24.4701 6.25 24.125Z" fill="var(--fill-0, #0268A0)"/>
</g>
<defs>
<clipPath id="clip0_1_20199">
<rect width="30" height="30" fill="white"/>
</clipPath>
</defs>
</svg>
