<svg preserveAspectRatio="none" width="100%" height="100%" overflow="visible" style="display: block;" viewBox="0 0 24 24" fill="none" xmlns="http://www.w3.org/2000/svg">
<g id="grip">
<path id="Vector" d="M20 5C19.6173 5.0011 19.2385 5.07579 18.884 5.22C18.7697 4.7773 18.5545 4.36707 18.2552 4.02146C17.9558 3.67585 17.5806 3.40426 17.1587 3.22796C16.7368 3.05166 16.2799 2.97545 15.8237 3.0053C15.3674 3.03515 14.9243 3.17024 14.529 3.4C14.2608 2.97122 13.888 2.61768 13.4456 2.37259C13.0032 2.1275 12.5057 1.99891 12 1.99891C11.4943 1.99891 10.9968 2.1275 10.5544 2.37259C10.112 2.61768 9.7392 2.97122 9.471 3.4C9.02387 3.14083 8.5168 3.00294 8 3C7.20435 3 6.44129 3.31607 5.87868 3.87868C5.31607 4.44129 5 5.20435 5 6V7.1C3.87141 7.3321 2.85735 7.94618 2.12872 8.83875C1.40009 9.73132 1.00146 10.8478 1 12V13C1.00265 15.3861 1.95171 17.6738 3.63896 19.361C5.32622 21.0483 7.61386 21.9974 10 22H14C16.3861 21.9974 18.6738 21.0483 20.361 19.361C22.0483 17.6738 22.9974 15.3861 23 13V8C23 7.20435 22.6839 6.44129 22.1213 5.87868C21.5587 5.31607 20.7956 5 20 5ZM21 13C20.9976 14.8558 20.2594 16.6349 18.9471 17.9471C17.6349 19.2594 15.8558 19.9976 14 20H10C8.14422 19.9976 6.36512 19.2594 5.05288 17.9471C3.74064 16.6349 3.00238 14.8558 3 13V12C3.00076 11.3797 3.19338 10.7749 3.55144 10.2684C3.90951 9.7619 4.41549 9.37858 5 9.171V10C5 10.2652 5.10536 10.5196 5.29289 10.7071C5.48043 10.8946 5.73478 11 6 11C6.26522 11 6.51957 10.8946 6.70711 10.7071C6.89464 10.5196 7 10.2652 7 10V6C7 5.73478 7.10536 5.48043 7.29289 5.29289C7.48043 5.10536 7.73478 5 8 5C8.26522 5 8.51957 5.10536 8.70711 5.29289C8.89464 5.48043 9 5.73478 9 6V9C9 9.26522 9.10536 9.51957 9.29289 9.70711C9.48043 9.89464 9.73478 10 10 10C10.2652 10 10.5196 9.89464 10.7071 9.70711C10.8946 9.51957 11 9.26522 11 9V5C11 4.73478 11.1054 4.48043 11.2929 4.29289C11.4804 4.10536 11.7348 4 12 4C12.2652 4 12.5196 4.10536 12.7071 4.29289C12.8946 4.48043 13 4.73478 13 5V9C13 9.26522 13.1054 9.51957 13.2929 9.70711C13.4804 9.89464 13.7348 10 14 10C14.2652 10 14.5196 9.89464 14.7071 9.70711C14.8946 9.51957 15 9.26522 15 9V6C15 5.73478 15.1054 5.48043 15.2929 5.29289C15.4804 5.10536 15.7348 5 16 5C16.2652 5 16.5196 5.10536 16.7071 5.29289C16.8946 5.48043 17 5.73478 17 6V9C17 9.26522 17.1054 9.51957 17.2929 9.70711C17.4804 9.89464 17.7348 10 18 10C18.2652 10 18.5196 9.89464 18.7071 9.70711C18.8946 9.51957 19 9.26522 19 9V8C19 7.73478 19.1054 7.48043 19.2929 7.29289C19.4804 7.10536 19.7348 7 20 7C20.2652 7 20.5196 7.10536 20.7071 7.29289C20.8946 7.48043 21 7.73478 21 8V13Z" fill="var(--fill-0, #0268A0)"/>
</g>
</svg>
