<svg preserveAspectRatio="none" width="100%" height="100%" overflow="visible" style="display: block;" viewBox="0 0 24 24" fill="none" xmlns="http://www.w3.org/2000/svg">
<g id="fabric">
<path id="Vector" d="M23 4C23 3.73478 22.8946 3.48043 22.7071 3.29289C22.5196 3.10536 22.2652 3 22 3H2C1.73478 3 1.48043 3.10536 1.29289 3.29289C1.10536 3.48043 1 3.73478 1 4V20C1 20.2652 1.10536 20.5196 1.29289 20.7071C1.48043 20.8946 1.73478 21 2 21H22C22.2652 21 22.5196 20.8946 22.7071 20.7071C22.8946 20.5196 23 20.2652 23 20V4ZM8.521 19C8.92101 17.9795 9.25045 16.9327 9.507 15.867C11.328 16.479 13.012 17.139 14.907 17.591C14.699 18.179 14.507 18.659 14.356 19H8.521ZM3 9.508C3.54136 8.89359 4.23783 8.43589 5.0166 8.18275C5.79537 7.92961 6.62785 7.89033 7.427 8.069C7.93187 9.77563 8.10166 11.5638 7.927 13.335C6.24549 12.9347 4.47385 13.2169 3 14.12V9.508ZM14.357 5C14.8437 6.12686 15.237 7.29177 15.533 8.483C13.295 7.971 11.44 7.136 9.033 6.425C8.855 5.888 8.681 5.409 8.521 5H14.357ZM9.871 13.878C10.0998 12.1539 10.0195 10.4029 9.634 8.707C11.6785 9.49391 13.779 10.1267 15.918 10.6C16.0994 12.3045 15.9541 14.0279 15.49 15.678C13.559 15.23 11.652 14.463 9.871 13.878ZM17.945 10.824C18.9726 10.8774 20.0024 10.7762 21 10.524V15.663C19.858 16.005 18.6601 16.1195 17.474 16C17.922 14.3136 18.0813 12.5636 17.945 10.824ZM21 8.458C19.9174 8.78452 18.783 8.90461 17.656 8.812C17.387 7.51131 17.0073 6.23599 16.521 5H21V8.458ZM6.357 5C6.467 5.252 6.602 5.579 6.75 5.972C5.43226 5.89058 4.12179 6.22082 3 6.917V5H6.357ZM3 16.711C3.55877 16.0751 4.28292 15.6065 5.09198 15.3574C5.90104 15.1083 6.76332 15.0885 7.583 15.3C7.28227 16.5665 6.87206 17.8045 6.357 19H3V16.711ZM16.521 19C16.643 18.689 16.773 18.336 16.905 17.948C18.2718 18.1343 19.6615 18.0586 21 17.725V19H16.521Z" fill="var(--fill-0, #0268A0)"/>
</g>
</svg>
