<svg preserveAspectRatio="none" width="100%" height="100%" overflow="visible" style="display: block;" viewBox="0 0 80.9127 80.9127" fill="none" xmlns="http://www.w3.org/2000/svg">
<g id="Frame">
<path id="Vector" d="M79.6627 40.4563C79.6627 18.8033 62.1094 1.25 40.4563 1.25C18.8033 1.25 1.25 18.8033 1.25 40.4563C1.25 62.1094 18.8033 79.6627 40.4563 79.6627C62.1094 79.6627 79.6627 62.1094 79.6627 40.4563Z" fill="var(--fill-0, #F3FAFE)"/>
<path id="Vector_2" d="M79.6627 40.4563C79.6627 18.8033 62.1094 1.25 40.4563 1.25C18.8033 1.25 1.25 18.8033 1.25 40.4563C1.25 62.1094 18.8033 79.6627 40.4563 79.6627C62.1094 79.6627 79.6627 62.1094 79.6627 40.4563Z" stroke="var(--stroke-0, #0268A0)" stroke-width="2.5"/>
<path id="Vector_3" d="M8.27127 37.5992V31.1992H10.9735C11.0357 31.1992 11.1187 31.2022 11.2224 31.2081C11.329 31.2111 11.4238 31.22 11.5068 31.2348C11.889 31.294 12.2016 31.42 12.4446 31.6125C12.6905 31.8051 12.8713 32.0481 12.9868 32.3414C13.1024 32.6318 13.1602 32.9562 13.1602 33.3148C13.1602 33.6733 13.1009 33.9992 12.9824 34.2925C12.8668 34.5829 12.6861 34.8244 12.4402 35.017C12.1972 35.2096 11.8861 35.3355 11.5068 35.3948C11.4238 35.4066 11.329 35.4155 11.2224 35.4214C11.1157 35.4273 11.0327 35.4303 10.9735 35.4303H9.48016V37.5992H8.27127ZM9.48016 34.3014H10.9202C10.9824 34.3014 11.0505 34.2984 11.1246 34.2925C11.1987 34.2866 11.2668 34.2748 11.329 34.257C11.492 34.2125 11.6179 34.1384 11.7068 34.0348C11.7957 33.9281 11.8565 33.8111 11.889 33.6836C11.9246 33.5533 11.9424 33.4303 11.9424 33.3148C11.9424 33.1992 11.9246 33.0777 11.889 32.9503C11.8565 32.82 11.7957 32.7029 11.7068 32.5992C11.6179 32.4925 11.492 32.417 11.329 32.3725C11.2668 32.3548 11.1987 32.3429 11.1246 32.337C11.0505 32.3311 10.9824 32.3281 10.9202 32.3281H9.48016V34.3014ZM14.2303 37.5992V31.1992H18.4081V32.3281H15.4392V33.697H17.8748V34.8259H15.4392V36.4703H18.4081V37.5992H14.2303ZM19.6511 37.5992V31.1992H22.3534C22.4156 31.1992 22.4986 31.2022 22.6023 31.2081C22.7089 31.2111 22.8037 31.22 22.8867 31.2348C23.2689 31.294 23.5815 31.42 23.8245 31.6125C24.0704 31.8051 24.2511 32.0481 24.3667 32.3414C24.4823 32.6318 24.54 32.9562 24.54 33.3148C24.54 33.8511 24.4067 34.3103 24.14 34.6925C23.8734 35.0718 23.4556 35.3059 22.8867 35.3948L22.3534 35.4303H20.86V37.5992H19.6511ZM23.26 37.5992L21.9978 34.9948L23.2423 34.7548L24.6289 37.5992H23.26ZM20.86 34.3014H22.3C22.3623 34.3014 22.4304 34.2984 22.5045 34.2925C22.5786 34.2866 22.6467 34.2748 22.7089 34.257C22.8719 34.2125 22.9978 34.1384 23.0867 34.0348C23.1756 33.9281 23.2363 33.8111 23.2689 33.6836C23.3045 33.5533 23.3223 33.4303 23.3223 33.3148C23.3223 33.1992 23.3045 33.0777 23.2689 32.9503C23.2363 32.82 23.1756 32.7029 23.0867 32.5992C22.9978 32.4925 22.8719 32.417 22.7089 32.3725C22.6467 32.3548 22.5786 32.3429 22.5045 32.337C22.4304 32.3311 22.3623 32.3281 22.3 32.3281H20.86V34.3014ZM25.7838 37.5992V31.1992H26.8682L28.9838 35.4481L31.0993 31.1992H32.1838V37.5992H31.0549V33.777L29.1971 37.5992H28.7704L26.9127 33.777V37.5992H25.7838ZM33.1647 37.5992L35.1202 31.1992H36.9247L38.8802 37.5992H37.6358L35.8936 31.9548H36.1247L34.4091 37.5992H33.1647ZM34.338 36.2659V35.137H37.7158V36.2659H34.338ZM39.8546 37.5992V31.1992H41.0813L43.8635 35.4659V31.1992H45.0902V37.5992H43.8635L41.0813 33.3325V37.5992H39.8546ZM46.5081 37.5992V31.1992H50.6859V32.3281H47.717V33.697H50.1525V34.8259H47.717V36.4703H50.6859V37.5992H46.5081ZM51.9289 37.5992V31.1992H53.1556L55.9378 35.4659V31.1992H57.1645V37.5992H55.9378L53.1556 33.3325V37.5992H51.9289ZM60.0668 37.5992V32.3281H58.0491V31.1992H63.2935V32.3281H61.2757V37.5992H60.0668ZM64.2741 37.5992V31.1992H65.483V36.4703H68.2386V37.5992H64.2741ZM69.8513 37.5992V34.9948L67.6646 31.1992H69.0779L70.4646 33.6081L71.8513 31.1992H73.2646L71.0779 34.9948V37.5992H69.8513Z" fill="var(--fill-0, #0268A0)"/>
<path id="Vector_4" d="M9.88156 49.6627V41.4341H11.4358V49.6627H9.88156ZM13.3776 49.6627V41.4341H14.9547L18.5318 46.9198V41.4341H20.109V49.6627H18.5318L14.9547 44.177V49.6627H13.3776ZM25.0406 49.8341C24.4311 49.8341 23.8806 49.7275 23.3892 49.5141C22.9016 49.297 22.4996 48.9884 22.1835 48.5884C21.8711 48.1846 21.673 47.7046 21.5892 47.1484L23.212 46.9084C23.3263 47.3808 23.5625 47.7446 23.9206 47.9998C24.2787 48.2551 24.6863 48.3827 25.1435 48.3827C25.3987 48.3827 25.6463 48.3427 25.8863 48.2627C26.1263 48.1827 26.3225 48.0646 26.4749 47.9084C26.6311 47.7522 26.7092 47.5598 26.7092 47.3313C26.7092 47.2475 26.6958 47.1675 26.6692 47.0913C26.6463 47.0113 26.6063 46.937 26.5492 46.8684C26.492 46.7998 26.4101 46.7351 26.3035 46.6741C26.2006 46.6132 26.0692 46.5579 25.9092 46.5084L23.772 45.8798C23.612 45.8341 23.4254 45.7694 23.212 45.6856C23.0025 45.6017 22.7987 45.4817 22.6006 45.3256C22.4025 45.1694 22.2368 44.9636 22.1035 44.7084C21.9739 44.4494 21.9092 44.1236 21.9092 43.7313C21.9092 43.1789 22.0482 42.7198 22.3263 42.3541C22.6044 41.9884 22.9758 41.716 23.4406 41.537C23.9054 41.3579 24.4196 41.2703 24.9835 41.2741C25.5511 41.2817 26.0577 41.3789 26.5035 41.5656C26.9492 41.7522 27.3225 42.0246 27.6235 42.3827C27.9244 42.737 28.1416 43.1713 28.2749 43.6856L26.5949 43.9713C26.5339 43.7046 26.4216 43.4798 26.2577 43.297C26.0939 43.1141 25.8977 42.9751 25.6692 42.8798C25.4444 42.7846 25.2082 42.7332 24.9606 42.7256C24.7168 42.7179 24.4863 42.7522 24.2692 42.8284C24.0558 42.9008 23.8806 43.0075 23.7435 43.1484C23.6101 43.2894 23.5435 43.457 23.5435 43.6513C23.5435 43.8303 23.5987 43.977 23.7092 44.0913C23.8196 44.2017 23.9587 44.2913 24.1263 44.3598C24.2939 44.4284 24.4654 44.4856 24.6406 44.5313L26.0692 44.9198C26.2825 44.977 26.5187 45.0532 26.7777 45.1484C27.0368 45.2398 27.2844 45.3694 27.5206 45.537C27.7606 45.7008 27.9568 45.9179 28.1092 46.1884C28.2654 46.4589 28.3435 46.8017 28.3435 47.217C28.3435 47.6589 28.2501 48.0456 28.0635 48.377C27.8806 48.7046 27.633 48.977 27.3206 49.1941C27.0082 49.4075 26.6539 49.5675 26.2577 49.6741C25.8654 49.7808 25.4596 49.8341 25.0406 49.8341ZM31.7366 49.6627V42.8856H29.1423V41.4341H35.8852V42.8856H33.2909V49.6627H31.7366ZM36.2374 49.6627L38.7517 41.4341H41.0716L43.5859 49.6627H41.9859L39.7459 42.4056H40.0431L37.8374 49.6627H36.2374ZM37.7459 47.9484V46.497H42.0888V47.9484H37.7459ZM44.953 49.6627V41.4341H46.5073V48.2113H50.0501V49.6627H44.953ZM51.3646 49.6627V41.4341H52.9189V48.2113H56.4617V49.6627H51.3646ZM57.6619 49.6627V41.4341H63.0334V42.8856H59.2162V44.6456H62.3476V46.097H59.2162V48.2113H63.0334V49.6627H57.6619ZM64.6316 49.6627V41.4341H67.2944C67.3592 41.4341 67.4925 41.436 67.6944 41.4398C67.8963 41.4437 68.0906 41.457 68.2773 41.4798C68.9402 41.5598 69.5021 41.7903 69.963 42.1713C70.424 42.5522 70.7744 43.036 71.0144 43.6227C71.2544 44.2094 71.3744 44.8513 71.3744 45.5484C71.3744 46.2456 71.2544 46.8875 71.0144 47.4741C70.7744 48.0608 70.424 48.5446 69.963 48.9256C69.5021 49.3065 68.9402 49.537 68.2773 49.617C68.0906 49.6398 67.8963 49.6532 67.6944 49.657C67.4925 49.6608 67.3592 49.6627 67.2944 49.6627H64.6316ZM66.2087 48.1998H67.2944C67.3973 48.1998 67.5363 48.1979 67.7116 48.1941C67.8868 48.1865 68.0449 48.1694 68.1859 48.1427C68.544 48.0703 68.8354 47.9027 69.0602 47.6398C69.2887 47.377 69.4563 47.0608 69.563 46.6913C69.6735 46.3217 69.7287 45.9408 69.7287 45.5484C69.7287 45.137 69.6716 44.7465 69.5573 44.377C69.4468 44.0075 69.2773 43.6951 69.0487 43.4398C68.8202 43.1846 68.5325 43.0227 68.1859 42.9541C68.0449 42.9236 67.8868 42.9065 67.7116 42.9027C67.5363 42.8989 67.3973 42.897 67.2944 42.897H66.2087V48.1998Z" fill="var(--fill-0, #0268A0)"/>
</g>
</svg>
