<svg preserveAspectRatio="none" width="100%" height="100%" overflow="visible" style="display: block;" viewBox="0 0 54.7849 14" fill="none" xmlns="http://www.w3.org/2000/svg">
<g id="ShopPay">
<path id="Vector" fill-rule="evenodd" clip-rule="evenodd" d="M26.4513 4.78804C26.9664 4.15101 27.7658 3.62291 28.7199 3.62291C30.8621 3.62291 32.5496 5.3964 32.5482 7.58473C32.5482 9.86479 30.8522 11.5523 28.8174 11.5523C27.7356 11.5523 26.9076 10.9984 26.6048 10.5363H26.576V13.8855C26.576 13.9057 26.568 13.925 26.5537 13.9392C26.5395 13.9535 26.5202 13.9615 26.5 13.9615H24.593C24.5726 13.9615 24.5531 13.9536 24.5386 13.9394C24.5242 13.9251 24.5158 13.9058 24.5154 13.8855V3.6977C24.5154 3.67719 24.5235 3.65744 24.5382 3.64292C24.5527 3.62839 24.5723 3.62024 24.593 3.62024H26.3751C26.3955 3.62062 26.4147 3.6289 26.429 3.64343C26.4433 3.65795 26.4512 3.67744 26.4512 3.6977V4.78804H26.4513ZM28.5571 9.61061C28.399 9.61558 28.24 9.60208 28.0834 9.56972C27.6894 9.48818 27.3289 9.29108 27.0476 9.00352C26.7664 8.71597 26.5773 8.35108 26.5046 7.95548C26.4835 7.84184 26.4726 7.72704 26.4713 7.61263C26.4699 7.48434 26.4806 7.35553 26.5038 7.22812C26.5758 6.83278 26.7638 6.46789 27.044 6.17995C27.3242 5.89202 27.6838 5.69403 28.077 5.61134C28.2345 5.57821 28.3944 5.5642 28.5535 5.56904C28.8121 5.57223 29.0676 5.62586 29.3057 5.72702C29.5469 5.82959 29.7655 5.97878 29.9489 6.16632C30.1321 6.35373 30.2764 6.57555 30.3736 6.81902C30.4707 7.06249 30.5186 7.32279 30.5148 7.58499C30.519 7.84757 30.4712 8.10862 30.3743 8.35273C30.2773 8.59684 30.1331 8.81942 29.9499 9.00773C29.7667 9.19604 29.548 9.34625 29.3067 9.4497C29.0698 9.55112 28.8151 9.6059 28.5571 9.61061Z" fill="var(--fill-0, #5F37F4)"/>
<path id="Vector_2" d="M14.071 5.14681C13.6305 4.22274 12.7953 3.62584 11.5369 3.62584C11.1506 3.63259 10.7711 3.72789 10.4276 3.9046C10.084 4.08119 9.78562 4.33447 9.5554 4.64458L9.50953 4.70051V1.07886C9.50953 1.05797 9.50125 1.03784 9.48647 1.02306C9.47169 1.00828 9.45156 1 9.43067 1H7.65132C7.63068 1.00038 7.61093 1.00892 7.5964 1.02357C7.58188 1.03835 7.57385 1.05823 7.57385 1.07886V11.4675C7.57385 11.4881 7.58201 11.5078 7.59653 11.5223C7.61106 11.5369 7.6308 11.545 7.65132 11.545H9.5568C9.57744 11.545 9.59732 11.5369 9.61209 11.5225C9.62687 11.5079 9.63528 11.4883 9.63566 11.4675V7.03802C9.63566 6.17701 10.2096 5.56725 11.128 5.56725C12.1324 5.56725 12.3864 6.39373 12.3864 7.23601V11.4675C12.3864 11.4881 12.3945 11.5078 12.409 11.5223C12.4236 11.5369 12.4433 11.545 12.4638 11.545H14.365C14.3857 11.545 14.4056 11.5369 14.4203 11.5225C14.435 11.5079 14.4436 11.4883 14.444 11.4675V6.9835C14.444 6.82997 14.444 6.67925 14.4238 6.53299C14.3913 6.0533 14.2717 5.58356 14.071 5.14681Z" fill="var(--fill-0, #5F37F4)"/>
<path id="Vector_3" d="M4.55622 6.68636C4.55622 6.68636 3.58627 6.45817 3.2289 6.36644C2.87165 6.27458 2.24736 6.07939 2.24736 5.60736C2.24736 5.13532 2.751 4.98459 3.2619 4.98459C3.7728 4.98459 4.3409 5.10805 4.38536 5.67475C4.38715 5.69514 4.39658 5.71412 4.41174 5.72801C4.4269 5.74177 4.44665 5.74941 4.46716 5.74941L6.34538 5.74228C6.35646 5.74228 6.36742 5.74011 6.37748 5.73565C6.38768 5.73119 6.39672 5.72482 6.40424 5.7168C6.41176 5.70877 6.41762 5.69921 6.42131 5.68877C6.42501 5.67832 6.42654 5.66724 6.42564 5.65628C6.30945 3.84253 4.71815 3.19403 3.25018 3.19403C1.50968 3.19403 0.236898 4.34196 0.236898 5.60748C0.236898 6.53156 0.49808 7.39817 2.55136 8.00093C2.91153 8.10566 3.40077 8.24198 3.82835 8.36111C4.34205 8.50457 4.61903 8.72128 4.61903 9.06273C4.61903 9.45871 4.04506 9.73429 3.48116 9.73429C2.66475 9.73429 2.08505 9.43157 2.03765 8.88768C2.03523 8.8678 2.02555 8.84946 2.01039 8.83621C1.99536 8.82296 1.97586 8.81582 1.95586 8.81595L0.081845 8.82461C0.0708881 8.82461 0.0599313 8.82678 0.0498662 8.83111C0.0398011 8.83544 0.0306281 8.84168 0.0229837 8.84958C0.0153393 8.85748 0.0093512 8.86678 0.00540162 8.8771C0.00145203 8.88742 -0.00033163 8.89825 5.05882e-05 8.90934C0.086177 10.6212 1.73914 11.5438 3.28024 11.5438C5.5761 11.5438 6.61357 10.2524 6.61357 9.04286C6.61663 8.47424 6.48616 7.18005 4.55622 6.68636Z" fill="var(--fill-0, #5F37F4)"/>
<path id="Vector_4" d="M18.8722 3.17523C17.0944 3.17523 16.2076 3.77939 15.4959 4.2629L15.4743 4.2773C15.4376 4.30239 15.4117 4.34049 15.4019 4.38381C15.3921 4.42712 15.3991 4.47261 15.4212 4.51121L16.1243 5.72221C16.1376 5.74489 16.1555 5.76438 16.1772 5.77916C16.1988 5.79406 16.2234 5.804 16.2492 5.8082C16.2745 5.81279 16.3004 5.81165 16.3254 5.80502C16.3502 5.79827 16.3731 5.78617 16.3926 5.76948L16.4487 5.72361C16.8145 5.41656 17.4014 5.00618 18.8219 4.89419C19.6126 4.83113 20.2956 5.03765 20.7991 5.50829C21.3531 6.01906 21.6846 6.84414 21.6846 7.71522C21.6846 9.31799 20.7404 10.3253 19.2237 10.3454C17.9739 10.3383 17.1345 9.68682 17.1345 8.72389C17.1345 8.21312 17.3655 7.88021 17.816 7.5473C17.8504 7.52271 17.8747 7.48652 17.8846 7.44537C17.8942 7.40422 17.8889 7.3609 17.8691 7.32357L17.2377 6.12978C17.2261 6.10837 17.2104 6.08952 17.1913 6.07423C17.1725 6.05894 17.1506 6.0476 17.1273 6.04072C17.1034 6.03359 17.0783 6.03155 17.0536 6.03486C17.0289 6.03805 17.0051 6.04645 16.9838 6.05945C16.275 6.47989 15.4054 7.24891 15.4528 8.72695C15.5101 10.6081 17.0743 12.0445 19.1074 12.1032H19.2093H19.3486C21.765 12.0243 23.5098 10.2307 23.5098 7.79854C23.5098 5.56575 21.8826 3.17523 18.8722 3.17523Z" fill="var(--fill-0, #5F37F4)"/>
<path id="Vector_5" fill-rule="evenodd" clip-rule="evenodd" d="M36.4813 1.02576H52.7515C53.8745 1.02576 54.7849 1.93607 54.7849 3.05903V11.9669C54.7849 13.0898 53.8745 14 52.7515 14H36.4813C35.3583 14 34.4481 13.0897 34.4481 11.9669V3.05903C34.4481 1.93607 35.3583 1.02576 36.4813 1.02576ZM40.1316 8.08124C41.489 8.08124 42.4604 7.09117 42.4604 5.70359C42.4604 4.32315 41.489 3.32734 40.1316 3.32734H37.7353C37.7068 3.32734 37.6794 3.33868 37.6593 3.35881C37.639 3.37895 37.6277 3.40634 37.6277 3.43488V10.0111C37.6281 10.0395 37.6394 10.0666 37.6596 10.0867C37.6798 10.1069 37.7069 10.1183 37.7353 10.1187H38.6365C38.6651 10.1187 38.6924 10.1074 38.7127 10.0873C38.7329 10.0671 38.7441 10.0397 38.7441 10.0112V8.1889C38.7441 8.16036 38.7555 8.13297 38.7757 8.11284C38.796 8.09271 38.8232 8.08137 38.8519 8.08137H40.1316V8.08124ZM40.0628 4.32608C40.8003 4.32608 41.3442 4.90871 41.3442 5.70359C41.3442 6.50001 40.8003 7.08111 40.0628 7.08111H38.8518C38.8234 7.08111 38.7962 7.07002 38.7761 7.05015C38.7558 7.03027 38.7444 7.00326 38.744 6.97498V4.43374C38.7444 4.40533 38.756 4.37819 38.776 4.35806C38.7961 4.33793 38.8232 4.32646 38.8518 4.32608H40.0628ZM42.7259 8.8574C42.7166 8.64463 42.7605 8.43301 42.8537 8.24152C42.947 8.05003 43.0865 7.88491 43.2598 7.76107C43.6099 7.49849 44.1523 7.36217 44.9572 7.33057L45.811 7.3019V7.04938C45.811 6.54575 45.4723 6.33196 44.9285 6.33196C44.3848 6.33196 44.0418 6.52422 43.9615 6.83853C43.955 6.8607 43.9414 6.88019 43.9227 6.89369C43.9039 6.9072 43.8813 6.91408 43.8582 6.91319H43.0159C43.0004 6.91357 42.985 6.91051 42.9708 6.9044C42.9566 6.89815 42.9439 6.88898 42.9336 6.87739C42.9234 6.86579 42.9158 6.85203 42.9113 6.83713C42.9069 6.82222 42.9058 6.80655 42.9083 6.79126C43.0345 6.04504 43.6516 5.47834 44.9674 5.47834C46.3649 5.47834 46.8686 6.12837 46.8686 7.36955V10.0069C46.8688 10.0211 46.8663 10.0353 46.8608 10.0485C46.8554 10.0618 46.8475 10.0737 46.8376 10.0839C46.8277 10.0941 46.8157 10.1022 46.8026 10.1076C46.7893 10.1131 46.7753 10.1159 46.761 10.1159H45.9102C45.8959 10.1159 45.8818 10.1131 45.8687 10.1076C45.8555 10.1022 45.8437 10.0941 45.8336 10.0839C45.8237 10.0737 45.8158 10.0618 45.8104 10.0485C45.8051 10.0353 45.8024 10.0211 45.8027 10.0069V9.81027C45.8041 9.79307 45.8 9.77575 45.7908 9.76109C45.7817 9.74644 45.768 9.7351 45.7518 9.72886C45.7357 9.72261 45.7181 9.7216 45.7014 9.72631C45.6847 9.7309 45.6699 9.74071 45.6593 9.75447C45.4053 10.0314 44.9921 10.2322 44.3336 10.2322C43.3674 10.2349 42.7259 9.72988 42.7259 8.8574ZM45.811 8.28344V8.07972L44.7062 8.13705C44.1236 8.16712 43.7835 8.4097 43.7835 8.81714C43.7835 9.18598 44.0949 9.3911 44.6374 9.3911C45.375 9.3911 45.8111 8.9922 45.8111 8.28484V8.28344H45.811ZM47.7237 11.3427V12.1103C47.7224 12.1352 47.7294 12.1596 47.7438 12.18C47.7581 12.2003 47.7787 12.2152 47.8026 12.2223C47.9527 12.2632 48.1078 12.2821 48.2633 12.2783C49.0882 12.2783 49.8416 11.9769 50.2721 10.8031L52.1661 5.75086C52.1716 5.73455 52.173 5.71723 52.1706 5.70028C52.168 5.68334 52.1615 5.66716 52.1517 5.65327C52.1418 5.63926 52.1286 5.62779 52.1135 5.61989C52.0983 5.61199 52.0815 5.60766 52.0643 5.6074H51.1819C51.1589 5.60715 51.1365 5.61441 51.1181 5.62779C51.0994 5.64116 51.0857 5.66015 51.0786 5.68206L50.0354 8.88187C50.0275 8.90289 50.0132 8.92085 49.9948 8.93359C49.9764 8.94633 49.9545 8.95321 49.932 8.95321C49.9096 8.95321 49.8877 8.94633 49.8692 8.93359C49.8509 8.92085 49.8367 8.90276 49.8287 8.88187L48.6262 5.6734C48.6182 5.65289 48.6042 5.63518 48.5861 5.62269C48.568 5.61021 48.5465 5.60333 48.5243 5.6032H47.6633C47.6462 5.60345 47.6294 5.60779 47.6143 5.61569C47.5991 5.62358 47.586 5.63505 47.576 5.64906C47.5661 5.66308 47.5596 5.67913 47.5572 5.69608C47.5546 5.71302 47.5562 5.73035 47.5616 5.74666L49.3322 10.2953C49.3409 10.3189 49.3409 10.3449 49.3322 10.3684L49.2763 10.5449C49.211 10.7639 49.0742 10.9545 48.8876 11.0865C48.701 11.2184 48.4757 11.2839 48.2475 11.2724C48.115 11.2723 47.983 11.2598 47.8528 11.2351C47.837 11.2321 47.8208 11.2326 47.8052 11.2367C47.7897 11.2408 47.7752 11.2482 47.7629 11.2585C47.7506 11.2688 47.7406 11.2817 47.7339 11.2962C47.7271 11.3107 47.7236 11.3267 47.7237 11.3427Z" fill="var(--fill-0, #5F37F4)"/>
</g>
</svg>
